<svg width="41" height="40" viewBox="0 0 41 40" fill="none" xmlns="http://www.w3.org/2000/svg">
<g clip-path="url(#clip0_2355_16325)">
<path d="M35.4994 31.6667H38.8327V35H2.16602V31.6667H5.49935V6.66667C5.49935 6.22464 5.67494 5.80072 5.9875 5.48816C6.30007 5.17559 6.72399 5 7.16602 5H23.8327C24.2747 5 24.6986 5.17559 25.0112 5.48816C25.3238 5.80072 25.4993 6.22464 25.4993 6.66667V31.6667H32.166V18.3333H28.8327V15H33.8327C34.2747 15 34.6986 15.1756 35.0112 15.4882C35.3238 15.8007 35.4994 16.2246 35.4994 16.6667V31.6667ZM8.83268 8.33333V31.6667H22.166V8.33333H8.83268ZM12.166 18.3333H18.8327V21.6667H12.166V18.3333ZM12.166 11.6667H18.8327V15H12.166V11.6667Z" fill="#3D81DA"/>
</g>
<defs>
<clipPath id="clip0_2355_16325">
<rect width="40" height="40" fill="white" transform="translate(0.5)"/>
</clipPath>
</defs>
</svg>
