<svg width="41" height="40" viewBox="0 0 41 40" fill="none" xmlns="http://www.w3.org/2000/svg">
<path d="M32.1673 8.3335L8.83398 31.6668M28.834 31.6668C27.9499 31.6668 27.1021 31.3156 26.477 30.6905C25.8518 30.0654 25.5007 29.2176 25.5007 28.3335C25.5007 27.4494 25.8518 26.6016 26.477 25.9765C27.1021 25.3514 27.9499 25.0002 28.834 25.0002C29.718 25.0002 30.5659 25.3514 31.191 25.9765C31.8161 26.6016 32.1673 27.4494 32.1673 28.3335C32.1673 29.2176 31.8161 30.0654 31.191 30.6905C30.5659 31.3156 29.718 31.6668 28.834 31.6668ZM12.1673 15.0002C11.2833 15.0002 10.4354 14.649 9.81029 14.0239C9.18517 13.3987 8.83398 12.5509 8.83398 11.6668C8.83398 10.7828 9.18517 9.93493 9.81029 9.30981C10.4354 8.68469 11.2833 8.3335 12.1673 8.3335C13.0514 8.3335 13.8992 8.68469 14.5243 9.30981C15.1495 9.93493 15.5007 10.7828 15.5007 11.6668C15.5007 12.5509 15.1495 13.3987 14.5243 14.0239C13.8992 14.649 13.0514 15.0002 12.1673 15.0002Z" stroke="#3D81DA" stroke-width="4" stroke-linecap="round" stroke-linejoin="round"/>
</svg>
