<svg width="120" height="30" viewBox="0 0 120 30" fill="none" xmlns="http://www.w3.org/2000/svg">
<path d="M53.1435 4.40986C54.0916 3.07528 55.423 2.03564 56.9749 1.41802C58.8718 0.722757 60.9652 0.707834 62.8726 1.37598C64.78 2.04412 66.3741 3.35073 67.3638 5.05713C68.4324 6.8562 68.9648 8.90435 68.9023 10.9761C68.9206 12.9416 68.4057 14.8778 67.4086 16.593C66.3577 18.4422 64.6051 19.8287 62.5173 20.4627C60.4295 21.0966 58.1681 20.929 56.2057 19.9947C54.9708 19.3587 53.9265 18.4275 53.1734 17.2906C53.1734 17.5135 53.1734 17.6502 53.1734 17.7868C53.1734 21.3828 53.1734 25.0219 53.1734 28.6394C53.1734 29.0422 53.0464 29.1213 52.6655 29.1141C51.6498 29.1141 50.6341 29.1141 49.6183 29.1141C49.2673 29.1141 49.1553 29.0493 49.1553 28.6826C49.1553 24.9212 49.1553 21.1526 49.1553 17.3913C49.1553 12.1795 49.1553 6.96778 49.1553 1.75604C49.1553 1.41802 49.215 1.29576 49.5959 1.31014C50.6639 1.31014 51.7394 1.31014 52.8074 1.31014C53.0838 1.31014 53.1659 1.37487 53.1585 1.64816C53.1286 2.54715 53.1435 3.46771 53.1435 4.40986ZM64.8692 10.8826C64.8786 10.3191 64.8185 9.75662 64.69 9.20686C64.4874 8.09834 63.9388 7.0756 63.1173 6.27489C62.2958 5.47418 61.2405 4.93354 60.0918 4.72498C58.9432 4.51642 57.7559 4.64985 56.688 5.1075C55.6201 5.56515 54.7224 6.32528 54.1144 7.28662C53.404 8.36121 53.0266 9.60868 53.0266 10.8826C53.0266 12.1565 53.404 13.4039 54.1144 14.4785C54.5884 15.2179 55.2364 15.8396 56.006 16.2932C56.7757 16.7468 57.6453 17.0196 58.5448 17.0897C59.4442 17.1597 60.3481 17.0249 61.1834 16.6962C62.0187 16.3676 62.762 15.8542 63.3531 15.1977C64.3821 13.9828 64.9182 12.4494 64.8618 10.8826H64.8692Z" fill="black" fill-opacity="0.64"/>
<path d="M84.0643 11.6018C81.4428 14.4354 78.8885 17.1827 76.3567 19.9444C76.235 20.1024 76.0743 20.2286 75.889 20.3115C75.7038 20.3944 75.5 20.4314 75.2961 20.4191C74.1534 20.4191 73.0107 20.4191 71.8755 20.4191C71.7204 20.4443 71.5609 20.4216 71.4199 20.3544L72.1145 19.5704C74.8132 16.593 77.5143 13.6179 80.2179 10.6453C80.4121 10.4367 80.3897 10.3216 80.2179 10.1203C77.6089 7.3346 75.0073 4.54174 72.4132 1.74169L72.1145 1.41805C72.2415 1.26702 72.3908 1.32455 72.5178 1.32455C73.7576 1.32455 74.9974 1.32455 76.2521 1.32455C76.3749 1.31674 76.4978 1.33826 76.6098 1.38719C76.7219 1.43612 76.8196 1.51096 76.8944 1.60504C79.1748 4.15098 81.4602 6.69212 83.7506 9.22847L84.0942 9.58806V9.08463C84.0942 6.63219 84.0942 4.17974 84.0942 1.7273C84.0942 1.41805 84.1614 1.31017 84.5049 1.32455C85.4211 1.32455 86.3397 1.32455 87.2609 1.32455C87.597 1.32455 87.6791 1.41805 87.6791 1.7273C87.6791 4.19413 87.6791 6.66095 87.6791 9.12778V9.59525L88.8517 8.3079L94.8789 1.53312C94.9226 1.46541 94.983 1.40904 95.0546 1.36893C95.1262 1.32881 95.2069 1.30617 95.2896 1.30298H99.5691C99.5691 1.49716 99.4123 1.59065 99.3077 1.69853L91.6673 9.89732C91.2342 10.3648 91.2342 10.3576 91.6673 10.8395L100.017 20.0379L100.249 20.3184C100.144 20.455 100.01 20.3903 99.8978 20.3903C98.658 20.3903 97.4182 20.3903 96.1635 20.3903C96.0345 20.3983 95.9055 20.3763 95.7872 20.3263C95.6689 20.2762 95.5649 20.1995 95.4838 20.1026C93.0739 17.4848 90.6591 14.8717 88.2393 12.2635L87.694 11.6809C87.5671 11.8176 87.6194 11.9686 87.6194 12.1052C87.6194 14.7159 87.6194 17.3338 87.6194 19.9444C87.6194 20.2896 87.5447 20.4047 87.1638 20.3975C86.2601 20.3975 85.3564 20.3975 84.4527 20.3975C84.124 20.3975 84.0344 20.3112 84.0344 19.9948C84.0344 17.3122 84.0344 14.6368 84.0344 11.9542L84.0643 11.6018Z" fill="black" fill-opacity="0.64"/>
<path d="M11.1249 9.12103L11.4237 8.72547C13.1713 6.32817 14.914 3.94285 16.6517 1.56952C16.71 1.47457 16.7948 1.39728 16.8965 1.34643C16.9981 1.29558 17.1126 1.2732 17.2268 1.28184C18.5612 1.28184 19.8981 1.28184 21.2374 1.28184C21.4988 1.28184 21.5885 1.33219 21.5885 1.60548C21.5885 7.75696 21.5885 13.9084 21.5885 20.0599C21.5885 20.326 21.5138 20.3979 21.2449 20.3908C20.147 20.3908 19.0491 20.3908 17.9438 20.3908C17.6077 20.3908 17.5703 20.2829 17.5703 20.0024C17.5703 15.4355 17.5703 10.8615 17.8317 6.3018C17.8317 6.17234 17.8317 6.05008 17.8317 5.81994L17.5405 6.21549L11.4162 14.7811C11.1249 15.191 11.1249 15.191 10.8262 14.7811L4.70191 6.21549L4.49279 5.9422C4.49279 6.70454 4.44798 7.49565 4.49279 8.28676C4.73179 12.2207 4.64963 16.1979 4.67204 20.1031C4.67204 20.3692 4.57495 20.4123 4.33595 20.4051C3.22313 20.4051 2.09536 20.4051 0.997478 20.4051C0.736076 20.4051 0.668859 20.3404 0.676327 20.0887C0.676327 13.9228 0.676327 7.75936 0.676327 1.59829C0.676327 1.33219 0.77342 1.29623 1.01242 1.29623C2.37917 1.29623 3.73846 1.29623 5.10522 1.29623C5.38902 1.29623 5.49359 1.44726 5.62055 1.61986L10.9382 8.91965L11.1249 9.12103Z" fill="black" fill-opacity="0.64"/>
<path d="M40.5515 6.41663L39.6478 7.73275C36.8147 11.8417 34.0016 15.9531 31.2083 20.0669C31.1499 20.1764 31.0592 20.2669 30.9476 20.327C30.836 20.3872 30.7084 20.4143 30.5809 20.4049C29.259 20.4049 27.937 20.4049 26.6151 20.4049C26.3537 20.4049 26.2566 20.3546 26.2641 20.0813C26.2641 13.9298 26.2641 7.78069 26.2641 1.634C26.2641 1.38229 26.3238 1.28879 26.6076 1.29598C27.7205 1.29598 28.8482 1.29598 29.9461 1.29598C30.1926 1.29598 30.2822 1.35352 30.2822 1.60524C30.2822 5.69024 30.327 9.77525 30.0805 13.8315C30.0805 14.2486 30.0805 14.6729 30.0805 15.162L30.3345 14.8024C33.3568 10.4057 36.3741 6.00669 39.3864 1.60524C39.4501 1.49147 39.547 1.39815 39.6651 1.33681C39.7832 1.27546 39.9174 1.24876 40.0511 1.26002C41.3581 1.26002 42.6652 1.26002 43.9722 1.26002C44.2634 1.26002 44.3381 1.33913 44.3381 1.61243C44.3381 7.74953 44.3381 13.8866 44.3381 20.0237C44.3381 20.3114 44.256 20.3761 43.9647 20.3689C42.8967 20.3689 41.8212 20.3689 40.7532 20.3689C40.4096 20.3689 40.32 20.2826 40.32 19.9518C40.32 15.6367 40.32 11.3215 40.559 7.00636C40.559 6.87691 40.5515 6.7043 40.5515 6.41663Z" fill="black" fill-opacity="0.64"/>
<path d="M106.701 9.55946L113.931 1.56205C113.982 1.48352 114.052 1.41822 114.135 1.37184C114.219 1.32546 114.313 1.2994 114.409 1.29595C115.761 1.29595 117.105 1.29595 118.457 1.29595C118.531 1.29178 118.606 1.29178 118.681 1.29595L117.553 2.53296C115.213 5.04533 112.87 7.55771 110.525 10.0701C110.316 10.293 110.301 10.4153 110.525 10.6526C113.393 13.7883 116.254 16.9312 119.107 20.0812L119.323 20.3258C119.219 20.4552 119.084 20.3977 118.972 20.3977C117.732 20.3977 116.493 20.3977 115.238 20.3977C115.096 20.4068 114.954 20.3828 114.824 20.3277C114.694 20.2726 114.58 20.188 114.491 20.0812C112.001 17.3483 109.492 14.6202 106.963 11.8968L106.716 11.6379C106.656 11.7739 106.638 11.9237 106.664 12.0694C106.664 14.7089 106.664 17.3483 106.664 19.9805C106.664 20.2826 106.604 20.3977 106.261 20.3905C105.342 20.3905 104.423 20.3905 103.505 20.3905C103.228 20.3905 103.116 20.3401 103.116 20.0453C103.116 13.9082 103.116 7.77347 103.116 1.64116C103.116 1.34629 103.228 1.28876 103.505 1.28876C104.438 1.28876 105.372 1.28876 106.298 1.28876C106.604 1.28876 106.664 1.38225 106.664 1.65555C106.664 4.12237 106.664 6.58201 106.664 9.04883L106.701 9.55946Z" fill="black" fill-opacity="0.64"/>
</svg>
