<svg width="33" height="32" viewBox="0 0 33 32" fill="none" xmlns="http://www.w3.org/2000/svg">
<g clip-path="url(#clip0_2355_16241)">
<path d="M28.5007 26.6665H31.1673V29.3332H1.83398V26.6665H4.50065V3.99984C4.50065 3.64622 4.64113 3.30708 4.89118 3.05703C5.14122 2.80698 5.48036 2.6665 5.83398 2.6665H27.1673C27.5209 2.6665 27.8601 2.80698 28.1101 3.05703C28.3602 3.30708 28.5007 3.64622 28.5007 3.99984V26.6665ZM25.834 26.6665V5.33317H7.16732V26.6665H25.834ZM11.1673 14.6665H15.1673V17.3332H11.1673V14.6665ZM11.1673 9.33317H15.1673V11.9998H11.1673V9.33317ZM11.1673 19.9998H15.1673V22.6665H11.1673V19.9998ZM17.834 19.9998H21.834V22.6665H17.834V19.9998ZM17.834 14.6665H21.834V17.3332H17.834V14.6665ZM17.834 9.33317H21.834V11.9998H17.834V9.33317Z" fill="#3D81DA"/>
</g>
<defs>
<clipPath id="clip0_2355_16241">
<rect width="32" height="32" fill="white" transform="translate(0.5)"/>
</clipPath>
</defs>
</svg>
