<svg width="32" height="32" viewBox="0 0 32 32" fill="none" xmlns="http://www.w3.org/2000/svg">
<g clip-path="url(#clip0_2355_16230)">
<path d="M13.2994 11.9668C13.9519 11.3142 14.3964 10.4827 14.5764 9.57742C14.7564 8.67219 14.664 7.7339 14.3107 6.88121C13.9575 6.02851 13.3594 5.29971 12.592 4.78695C11.8245 4.27419 10.9223 4.00051 9.99935 4.00051C9.07639 4.00051 8.17416 4.27419 7.40674 4.78695C6.63932 5.29971 6.04118 6.02851 5.68796 6.88121C5.33474 7.7339 5.24229 8.67219 5.42232 9.57742C5.60235 10.4827 6.04675 11.3142 6.69935 11.9668L9.99935 15.2668L13.2994 11.9668ZM9.99935 19.0375L4.81269 13.8535C3.78744 12.8278 3.08935 11.5211 2.80668 10.0987C2.524 8.67623 2.66942 7.20192 3.22457 5.86213C3.77971 4.52234 4.71964 3.37723 5.92553 2.57159C7.13141 1.76594 8.5491 1.33594 9.99935 1.33594C11.4496 1.33594 12.8673 1.76594 14.0732 2.57159C15.2791 3.37723 16.219 4.52234 16.7741 5.86213C17.3293 7.20192 17.4747 8.67623 17.192 10.0987C16.9093 11.5211 16.2113 12.8278 15.186 13.8535L9.99935 19.0402V19.0375ZM9.99935 10.6668C9.46892 10.6668 8.96021 10.4561 8.58514 10.0811C8.21007 9.70598 7.99935 9.19727 7.99935 8.66684C7.99935 8.1364 8.21007 7.6277 8.58514 7.25262C8.96021 6.87755 9.46892 6.66684 9.99935 6.66684C10.5298 6.66684 11.0385 6.87755 11.4136 7.25262C11.7886 7.6277 11.9994 8.1364 11.9994 8.66684C11.9994 9.19727 11.7886 9.70598 11.4136 10.0811C11.0385 10.4561 10.5298 10.6668 9.99935 10.6668ZM21.9994 27.2668L25.2994 23.9668C25.9519 23.3142 26.3964 22.4827 26.5764 21.5774C26.7564 20.6722 26.664 19.7339 26.3107 18.8812C25.9575 18.0285 25.3594 17.2997 24.592 16.7869C23.8245 16.2742 22.9223 16.0005 21.9994 16.0005C21.0764 16.0005 20.1742 16.2742 19.4067 16.7869C18.6393 17.2997 18.0412 18.0285 17.688 18.8812C17.3347 19.7339 17.2423 20.6722 17.4223 21.5774C17.6023 22.4827 18.0468 23.3142 18.6994 23.9668L21.9994 27.2668ZM27.186 25.8535L21.9994 31.0375L16.8127 25.8522C15.7874 24.8264 15.0894 23.5198 14.8067 22.0973C14.524 20.6749 14.6694 19.2006 15.2246 17.8608C15.7797 16.521 16.7196 15.3759 17.9255 14.5703C19.1314 13.7646 20.5491 13.3346 21.9994 13.3346C23.4496 13.3346 24.8673 13.7646 26.0732 14.5703C27.2791 15.3759 28.219 16.521 28.7741 17.8608C29.3293 19.2006 29.4747 20.6749 29.192 22.0973C28.9093 23.5198 28.2113 24.8278 27.186 25.8535ZM21.9994 22.6668C21.4689 22.6668 20.9602 22.4561 20.5851 22.0811C20.2101 21.706 19.9994 21.1973 19.9994 20.6668C19.9994 20.1364 20.2101 19.6277 20.5851 19.2526C20.9602 18.8776 21.4689 18.6668 21.9994 18.6668C22.5298 18.6668 23.0385 18.8776 23.4136 19.2526C23.7886 19.6277 23.9993 20.1364 23.9993 20.6668C23.9993 21.1973 23.7886 21.706 23.4136 22.0811C23.0385 22.4561 22.5298 22.6668 21.9994 22.6668Z" fill="#3D81DA"/>
</g>
<defs>
<clipPath id="clip0_2355_16230">
<rect width="32" height="32" fill="white"/>
</clipPath>
</defs>
</svg>
