<svg width="116" height="37" viewBox="0 0 116 37" fill="none" xmlns="http://www.w3.org/2000/svg">
<path d="M51.1878 12.4362C52.1128 11.135 53.4118 10.1214 54.9258 9.51921C56.7764 8.84133 58.8187 8.82678 60.6796 9.47822C62.5405 10.1297 64.0957 11.4036 65.0613 13.0673C66.1038 14.8214 66.6232 16.8184 66.5623 18.8383C66.5801 20.7547 66.0778 22.6425 65.105 24.3148C64.0797 26.1178 62.3699 27.4696 60.333 28.0878C58.2962 28.7059 56.0898 28.5424 54.1753 27.6315C52.9705 27.0114 51.9518 26.1034 51.217 24.9949C51.217 25.2123 51.217 25.3456 51.217 25.4788C51.217 28.9848 51.217 32.533 51.217 36.0601C51.217 36.4527 51.0931 36.5299 50.7215 36.5229C49.7306 36.5229 48.7396 36.5229 47.7486 36.5229C47.4062 36.5229 47.2969 36.4598 47.2969 36.1021C47.2969 32.4348 47.2969 28.7605 47.2969 25.0931C47.2969 20.0117 47.2969 14.9302 47.2969 9.84878C47.2969 9.51921 47.3552 9.4 47.7268 9.41403C48.7687 9.41403 49.818 9.41403 50.86 9.41403C51.1296 9.41403 51.2097 9.47714 51.2024 9.7436C51.1733 10.6201 51.1878 11.5177 51.1878 12.4362ZM62.6276 18.7472C62.6367 18.1978 62.578 17.6493 62.4527 17.1133C62.255 16.0325 61.7198 15.0354 60.9184 14.2547C60.1169 13.474 59.0873 12.9468 57.9667 12.7435C56.8461 12.5401 55.6877 12.6702 54.6458 13.1164C53.604 13.5627 52.7282 14.3038 52.1351 15.2411C51.4419 16.2888 51.0738 17.5051 51.0738 18.7472C51.0738 19.9892 51.4419 21.2055 52.1351 22.2532C52.5975 22.9741 53.2297 23.5802 53.9805 24.0225C54.7314 24.4648 55.5799 24.7308 56.4573 24.7991C57.3348 24.8673 58.2167 24.7359 59.0316 24.4155C59.8466 24.095 60.5717 23.5945 61.1484 22.9544C62.1523 21.7698 62.6753 20.2748 62.6203 18.7472H62.6276Z" fill="#3E82DA"/>
<path d="M81.3536 19.4486C78.796 22.2113 76.304 24.89 73.8339 27.5826C73.7152 27.7367 73.5584 27.8597 73.3777 27.9405C73.197 28.0214 72.9981 28.0574 72.7993 28.0454C71.6844 28.0454 70.5696 28.0454 69.4621 28.0454C69.3107 28.07 69.1551 28.0479 69.0176 27.9823L69.6952 27.218C72.3281 24.315 74.9633 21.4143 77.601 18.516C77.7905 18.3126 77.7686 18.2004 77.601 18.0041C75.0556 15.288 72.5175 12.565 69.9867 9.83496L69.6952 9.51942C69.8191 9.37217 69.9648 9.42826 70.0887 9.42826C71.2982 9.42826 72.5078 9.42826 73.7319 9.42826C73.8517 9.42065 73.9716 9.44163 74.0809 9.48933C74.1902 9.53704 74.2856 9.61001 74.3586 9.70173C76.5833 12.184 78.813 14.6616 81.0475 17.1346L81.3827 17.4852V16.9943C81.3827 14.6032 81.3827 12.2121 81.3827 9.82094C81.3827 9.51942 81.4483 9.41424 81.7835 9.42826C82.6773 9.42826 83.5735 9.42826 84.4722 9.42826C84.8 9.42826 84.8802 9.51942 84.8802 9.82094C84.8802 12.2261 84.8802 14.6312 84.8802 17.0364V17.4922L86.0242 16.237L91.9043 9.63161C91.9471 9.5656 92.0059 9.51064 92.0758 9.47153C92.1456 9.43241 92.2243 9.41034 92.3051 9.40723H96.4802C96.4802 9.59655 96.3272 9.68771 96.2252 9.79289L88.7712 17.7867C88.3485 18.2425 88.3485 18.2355 88.7712 18.7053L96.9174 27.6738L97.1433 27.9473C97.0413 28.0805 96.9101 28.0174 96.8008 28.0174C95.5913 28.0174 94.3817 28.0174 93.1576 28.0174C93.0318 28.0252 92.9059 28.0037 92.7906 27.9549C92.6752 27.9061 92.5736 27.8313 92.4945 27.7369C90.1434 25.1845 87.7875 22.6368 85.4267 20.0937L84.8948 19.5257C84.7709 19.6589 84.8219 19.8062 84.8219 19.9394C84.8219 22.4848 84.8219 25.0372 84.8219 27.5826C84.8219 27.9192 84.749 28.0314 84.3774 28.0244C83.4958 28.0244 82.6141 28.0244 81.7324 28.0244C81.4118 28.0244 81.3244 27.9402 81.3244 27.6317C81.3244 25.0162 81.3244 22.4077 81.3244 19.7922L81.3536 19.4486Z" fill="#EA9926"/>
<path d="M10.1943 17.0293L10.4857 16.6436C12.1908 14.3062 13.8909 11.9805 15.5863 9.66653C15.6432 9.57396 15.7259 9.4986 15.8251 9.44902C15.9243 9.39944 16.0359 9.37762 16.1473 9.38604C17.4492 9.38604 18.7534 9.38604 20.0601 9.38604C20.3152 9.38604 20.4026 9.43513 20.4026 9.70159C20.4026 15.6993 20.4026 21.697 20.4026 27.6947C20.4026 27.9541 20.3297 28.0242 20.0674 28.0172C18.9963 28.0172 17.9252 28.0172 16.8468 28.0172C16.5189 28.0172 16.4825 27.9121 16.4825 27.6386C16.4825 23.1859 16.4825 18.7262 16.7375 14.2805C16.7375 14.1543 16.7375 14.0351 16.7375 13.8107L16.4533 14.1964L10.4785 22.5478C10.1943 22.9475 10.1943 22.9475 9.90283 22.5478L3.92793 14.1964L3.72391 13.9299C3.72391 14.6732 3.68019 15.4445 3.72391 16.2158C3.95708 20.0515 3.87693 23.9292 3.89879 27.7367C3.89879 27.9962 3.80406 28.0383 3.5709 28.0313C2.48522 28.0313 1.38496 28.0313 0.313851 28.0313C0.0588246 28.0313 -0.00675374 27.9681 0.000532721 27.7227C0.000532721 21.711 0.000532721 15.7016 0.000532721 9.69458C0.000532721 9.43513 0.0952572 9.40007 0.328424 9.40007C1.66185 9.40007 2.98798 9.40007 4.3214 9.40007C4.59829 9.40007 4.7003 9.54732 4.82417 9.71561L10.0121 16.8329L10.1943 17.0293Z" fill="#3E82DA"/>
<path d="M38.9032 14.3924L38.0216 15.6757C35.2576 19.6819 32.513 23.6905 29.7879 27.7014C29.7309 27.8082 29.6424 27.8965 29.5335 27.9551C29.4247 28.0137 29.3002 28.0401 29.1758 28.031C27.8861 28.031 26.5964 28.031 25.3067 28.031C25.0517 28.031 24.957 27.9819 24.9643 27.7155C24.9643 21.7178 24.9643 15.7224 24.9643 9.72939C24.9643 9.48396 25.0226 9.39281 25.2994 9.39982C26.3851 9.39982 27.4854 9.39982 28.5565 9.39982C28.7969 9.39982 28.8844 9.45591 28.8844 9.70134C28.8844 13.6842 28.9281 17.6671 28.6876 21.6219C28.6876 22.0286 28.6876 22.4424 28.6876 22.9192L28.9354 22.5686C31.884 18.2818 34.8277 13.9927 37.7666 9.70134C37.8287 9.59042 37.9232 9.49943 38.0384 9.43962C38.1537 9.37981 38.2846 9.35378 38.4151 9.36476C39.6902 9.36476 40.9653 9.36476 42.2404 9.36476C42.5246 9.36476 42.5975 9.44189 42.5975 9.70835C42.5975 15.692 42.5975 21.6757 42.5975 27.6594C42.5975 27.9398 42.5173 28.003 42.2332 27.9959C41.1912 27.9959 40.1419 27.9959 39.1 27.9959C38.7648 27.9959 38.6774 27.9118 38.6774 27.5892C38.6774 23.382 38.6774 19.1747 38.9105 14.9674C38.9105 14.8412 38.9032 14.6729 38.9032 14.3924Z" fill="#3E82DA"/>
<path d="M103.439 17.457L107.578 12.8781L110.492 9.65953C110.542 9.58296 110.611 9.51929 110.692 9.47407C110.773 9.42885 110.865 9.40345 110.959 9.40008C112.277 9.40008 113.589 9.40008 114.908 9.40008C114.981 9.39601 115.054 9.39601 115.126 9.40008L114.026 10.6062C111.743 13.0557 109.458 15.5053 107.17 17.9549C106.966 18.1722 106.951 18.2914 107.17 18.5228C109.968 21.5801 112.758 24.6444 115.542 27.7157L115.753 27.9541C115.651 28.0804 115.52 28.0243 115.411 28.0243C114.201 28.0243 112.991 28.0243 111.767 28.0243C111.629 28.0332 111.491 28.0098 111.364 27.956C111.237 27.9023 111.125 27.8199 111.039 27.7157C108.61 25.0511 106.162 22.3912 103.694 19.7359L103.453 19.4835C103.395 19.6161 103.377 19.7622 103.402 19.9042C103.402 22.4777 103.402 25.0511 103.402 27.6176C103.402 27.9121 103.344 28.0243 103.009 28.0172C102.113 28.0172 101.217 28.0172 100.32 28.0172C100.051 28.0172 99.9414 27.9682 99.9414 27.6807C99.9414 21.697 99.9414 15.7157 99.9414 9.73666C99.9414 9.44916 100.051 9.39307 100.32 9.39307C101.231 9.39307 102.142 9.39307 103.045 9.39307C103.344 9.39307 103.402 9.48422 103.402 9.75068C103.402 12.1558 103.402 14.554 103.402 16.9591L103.439 17.457Z" fill="#EA9926"/>
</svg>
