<svg width="120" height="40" viewBox="0 0 120 40" fill="none" xmlns="http://www.w3.org/2000/svg">
<path d="M53.4169 14.2695C54.3708 12.9349 55.7103 11.8953 57.2716 11.2776C59.1801 10.5824 61.2862 10.5675 63.2052 11.2356C65.1243 11.9037 66.7281 13.2103 67.7238 14.9167C68.799 16.7158 69.3346 18.764 69.2717 20.8357C69.2901 22.8013 68.7721 24.7374 67.7689 26.4526C66.7116 28.3018 64.9484 29.6883 62.8478 30.3223C60.7473 30.9563 58.472 30.7886 56.4977 29.8543C55.2552 29.2183 54.2047 28.2871 53.4469 27.1502C53.4469 27.3731 53.4469 27.5098 53.4469 27.6464C53.4469 31.2424 53.4469 34.8815 53.4469 38.499C53.4469 38.9018 53.3192 38.9809 52.936 38.9737C51.914 38.9737 50.8921 38.9737 49.8702 38.9737C49.517 38.9737 49.4043 38.909 49.4043 38.5422C49.4043 34.7808 49.4043 31.0122 49.4043 27.2509C49.4043 22.0391 49.4043 16.8274 49.4043 11.6157C49.4043 11.2776 49.4644 11.1554 49.8476 11.1698C50.9222 11.1698 52.0042 11.1698 53.0787 11.1698C53.3567 11.1698 53.4394 11.2345 53.4319 11.5078C53.4018 12.4068 53.4169 13.3273 53.4169 14.2695ZM65.2141 20.7422C65.2235 20.1788 65.163 19.6162 65.0337 19.0665C64.8299 17.958 64.2779 16.9352 63.4514 16.1345C62.625 15.3338 61.5632 14.7932 60.4075 14.5846C59.2519 14.376 58.0573 14.5095 56.9829 14.9671C55.9085 15.4248 55.0053 16.1849 54.3937 17.1462C53.6789 18.2208 53.2992 19.4683 53.2992 20.7422C53.2992 22.0161 53.6789 23.2636 54.3937 24.3382C54.8705 25.0776 55.5225 25.6992 56.2968 26.1528C57.0711 26.6064 57.9461 26.8793 58.851 26.9493C59.7559 27.0193 60.6654 26.8845 61.5058 26.5559C62.3462 26.2272 63.094 25.7138 63.6887 25.0573C64.724 23.8424 65.2633 22.3091 65.2066 20.7422H65.2141Z" fill="#0047B0"/>
<path d="M84.5262 21.4614C81.8887 24.295 79.3188 27.0423 76.7715 29.804C76.6491 29.962 76.4874 30.0882 76.3011 30.1711C76.1147 30.254 75.9096 30.291 75.7045 30.2787C74.5549 30.2787 73.4052 30.2787 72.2631 30.2787C72.107 30.3039 71.9465 30.2812 71.8047 30.214L72.5035 29.4301C75.2186 26.4526 77.9362 23.4776 80.6564 20.5049C80.8517 20.2963 80.8292 20.1813 80.6564 19.9799C78.0314 17.1942 75.414 14.4014 72.8041 11.6013L72.5035 11.2777C72.6313 11.1266 72.7815 11.1842 72.9093 11.1842C74.1566 11.1842 75.404 11.1842 76.6663 11.1842C76.7899 11.1764 76.9135 11.1979 77.0262 11.2468C77.139 11.2957 77.2373 11.3706 77.3126 11.4647C79.6069 14.0106 81.9062 16.5517 84.2106 19.0881L84.5562 19.4477V18.9442C84.5562 16.4918 84.5562 14.0394 84.5562 11.5869C84.5562 11.2777 84.6238 11.1698 84.9695 11.1842C85.8912 11.1842 86.8155 11.1842 87.7422 11.1842C88.0804 11.1842 88.163 11.2777 88.163 11.5869C88.163 14.0537 88.163 16.5206 88.163 18.9874V19.4549L89.3427 18.1675L95.4067 11.3927C95.4507 11.325 95.5114 11.2687 95.5834 11.2285C95.6555 11.1884 95.7367 11.1658 95.8199 11.1626H100.126C100.126 11.3568 99.9678 11.4503 99.8626 11.5582L92.1756 19.7569C91.7397 20.2244 91.7397 20.2172 92.1756 20.6991L100.576 29.8975L100.809 30.178C100.704 30.3147 100.569 30.2499 100.456 30.2499C99.2088 30.2499 97.9615 30.2499 96.6991 30.2499C96.5694 30.2579 96.4396 30.2359 96.3206 30.1859C96.2016 30.1358 96.0969 30.0591 96.0153 29.9623C93.5907 27.3444 91.1612 24.7313 88.7266 22.1231L88.178 21.5405C88.0503 21.6772 88.1029 21.8282 88.1029 21.9649C88.1029 24.5755 88.1029 27.1934 88.1029 29.804C88.1029 30.1493 88.0278 30.2643 87.6445 30.2571C86.7353 30.2571 85.8261 30.2571 84.9169 30.2571C84.5863 30.2571 84.4961 30.1708 84.4961 29.8544C84.4961 27.1718 84.4961 24.4964 84.4961 21.8138L84.5262 21.4614Z" fill="#EA9926"/>
<path d="M11.1427 18.9806L11.4433 18.5851C13.2016 16.1878 14.9549 13.8025 16.7032 11.4291C16.7619 11.3342 16.8472 11.2569 16.9495 11.2061C17.0518 11.1552 17.1669 11.1328 17.2818 11.1415C18.6243 11.1415 19.9694 11.1415 21.3169 11.1415C21.5799 11.1415 21.6701 11.1918 21.6701 11.4651C21.6701 17.6166 21.6701 23.7681 21.6701 29.9195C21.6701 30.1856 21.5949 30.2576 21.3244 30.2504C20.2198 30.2504 19.1153 30.2504 18.0032 30.2504C17.665 30.2504 17.6275 30.1425 17.6275 29.862C17.6275 25.2951 17.6275 20.7211 17.8905 16.1614C17.8905 16.032 17.8905 15.9097 17.8905 15.6796L17.5974 16.0751L11.4358 24.6407C11.1427 25.0506 11.1427 25.0506 10.8422 24.6407L4.68057 16.0751L4.47017 15.8018C4.47017 16.5642 4.42508 17.3553 4.47017 18.1464C4.71062 22.0804 4.62797 26.0575 4.65051 29.9627C4.65051 30.2288 4.55282 30.272 4.31237 30.2648C3.19276 30.2648 2.05812 30.2648 0.953541 30.2648C0.690546 30.2648 0.622918 30.2 0.630432 29.9483C0.630432 23.7824 0.630432 17.619 0.630432 11.4579C0.630432 11.1918 0.728117 11.1558 0.96857 11.1558C2.34366 11.1558 3.71124 11.1558 5.08633 11.1558C5.37187 11.1558 5.47707 11.3069 5.60481 11.4795L10.9549 18.7793L11.1427 18.9806Z" fill="#0047B0"/>
<path d="M40.7471 16.2763L39.8378 17.5924C36.9875 21.7014 34.1571 25.8128 31.3468 29.9266C31.2881 30.0361 31.1968 30.1266 31.0845 30.1867C30.9723 30.2468 30.8439 30.2739 30.7157 30.2646C29.3857 30.2646 28.0556 30.2646 26.7256 30.2646C26.4626 30.2646 26.365 30.2142 26.3725 29.9409C26.3725 23.7895 26.3725 17.6404 26.3725 11.4937C26.3725 11.242 26.4326 11.1485 26.7181 11.1557C27.8377 11.1557 28.9724 11.1557 30.0769 11.1557C30.3249 11.1557 30.4151 11.2132 30.4151 11.4649C30.4151 15.5499 30.4602 19.6349 30.2122 23.6912C30.2122 24.1083 30.2122 24.5326 30.2122 25.0217L30.4677 24.6621C33.5084 20.2654 36.5441 15.8664 39.5748 11.4649C39.6389 11.3512 39.7364 11.2578 39.8552 11.1965C39.9741 11.1351 40.1091 11.1084 40.2436 11.1197C41.5586 11.1197 42.8736 11.1197 44.1885 11.1197C44.4816 11.1197 44.5567 11.1988 44.5567 11.4721C44.5567 17.6092 44.5567 23.7463 44.5567 29.8834C44.5567 30.1711 44.4741 30.2358 44.181 30.2286C43.1065 30.2286 42.0245 30.2286 40.9499 30.2286C40.6043 30.2286 40.5141 30.1423 40.5141 29.8115C40.5141 25.4963 40.5141 21.1812 40.7546 16.866C40.7546 16.7366 40.7471 16.564 40.7471 16.2763Z" fill="#0047B0"/>
<path d="M107.3 19.4186L111.568 14.7223L114.574 11.4212C114.625 11.3427 114.696 11.2774 114.78 11.231C114.864 11.1846 114.958 11.1586 115.055 11.1551C116.415 11.1551 117.767 11.1551 119.127 11.1551C119.203 11.151 119.278 11.151 119.353 11.1551L118.218 12.3922C115.864 14.9045 113.507 17.4169 111.147 19.9293C110.937 20.1522 110.922 20.2745 111.147 20.5118C114.033 23.6475 116.911 26.7904 119.781 29.9404L119.999 30.1849C119.894 30.3144 119.759 30.2569 119.646 30.2569C118.399 30.2569 117.151 30.2569 115.889 30.2569C115.746 30.266 115.603 30.242 115.473 30.1869C115.342 30.1318 115.227 30.0472 115.137 29.9404C112.633 27.2075 110.108 24.4794 107.563 21.756L107.315 21.4971C107.255 21.6331 107.236 21.7829 107.263 21.9286C107.263 24.5681 107.263 27.2075 107.263 29.8397C107.263 30.1418 107.202 30.2569 106.857 30.2497C105.933 30.2497 105.008 30.2497 104.084 30.2497C103.806 30.2497 103.693 30.1993 103.693 29.9045C103.693 23.7674 103.693 17.6327 103.693 11.5004C103.693 11.2055 103.806 11.1479 104.084 11.1479C105.023 11.1479 105.963 11.1479 106.894 11.1479C107.202 11.1479 107.263 11.2414 107.263 11.5147C107.263 13.9816 107.263 16.4412 107.263 18.908L107.3 19.4186Z" fill="#EA9926"/>
</svg>
