<svg width="160" height="39" viewBox="0 0 160 39" fill="none" xmlns="http://www.w3.org/2000/svg">
<path d="M95.4347 13.9128C96.3597 12.6116 97.6586 11.5979 99.1727 10.9958C101.023 10.3179 103.066 10.3033 104.927 10.9548C106.787 11.6062 108.343 12.8802 109.308 14.5439C110.351 16.298 110.87 18.2949 110.809 20.3149C110.827 22.2313 110.325 24.119 109.352 25.7913C108.327 27.5943 106.617 28.9462 104.58 29.5643C102.543 30.1824 100.337 30.019 98.4222 29.1081C97.2174 28.488 96.1987 27.58 95.4639 26.4715C95.4639 26.6889 95.4639 26.8221 95.4639 26.9553C95.4639 30.4614 95.4639 34.0095 95.4639 37.5366C95.4639 37.9293 95.34 38.0064 94.9684 37.9994C93.9774 37.9994 92.9865 37.9994 91.9955 37.9994C91.6531 37.9994 91.5438 37.9363 91.5438 37.5787C91.5438 33.9114 91.5438 30.237 91.5438 26.5697C91.5438 21.4882 91.5438 16.4068 91.5438 11.3253C91.5438 10.9958 91.6021 10.8766 91.9737 10.8906C93.0156 10.8906 94.0649 10.8906 95.1068 10.8906C95.3764 10.8906 95.4566 10.9537 95.4493 11.2202C95.4202 12.0967 95.4347 12.9942 95.4347 13.9128ZM106.874 20.2237C106.884 19.6744 106.825 19.1259 106.7 18.5899C106.502 17.5091 105.967 16.5119 105.165 15.7312C104.364 14.9505 103.334 14.4234 102.214 14.2201C101.093 14.0167 99.9346 14.1468 98.8927 14.593C97.8509 15.0392 96.9751 15.7803 96.382 16.7177C95.6888 17.7654 95.3206 18.9817 95.3206 20.2237C95.3206 21.4658 95.6888 22.682 96.382 23.7298C96.8444 24.4507 97.4765 25.0568 98.2274 25.4991C98.9783 25.9413 99.8268 26.2074 100.704 26.2756C101.582 26.3439 102.464 26.2125 103.279 25.892C104.093 25.5716 104.819 25.0711 105.395 24.431C106.399 23.2464 106.922 21.7514 106.867 20.2237H106.874Z" fill="white"/>
<path d="M125.601 20.9251C123.043 23.6879 120.551 26.3665 118.081 29.0592C117.962 29.2132 117.805 29.3363 117.625 29.4171C117.444 29.4979 117.245 29.534 117.046 29.522C115.931 29.522 114.817 29.522 113.709 29.522C113.558 29.5465 113.402 29.5244 113.265 29.4589L113.942 28.6946C116.575 25.7915 119.21 22.8909 121.848 19.9925C122.038 19.7892 122.016 19.677 121.848 19.4806C119.303 16.7646 116.765 14.0416 114.234 11.3115L113.942 10.996C114.066 10.8487 114.212 10.9048 114.336 10.9048C115.545 10.9048 116.755 10.9048 117.979 10.9048C118.099 10.8972 118.219 10.9182 118.328 10.9659C118.437 11.0136 118.533 11.0866 118.606 11.1783C120.83 13.6606 123.06 16.1382 125.295 18.6111L125.63 18.9617V18.4709C125.63 16.0798 125.63 13.6886 125.63 11.2975C125.63 10.996 125.695 10.8908 126.031 10.9048C126.924 10.9048 127.821 10.9048 128.719 10.9048C129.047 10.9048 129.127 10.996 129.127 11.2975C129.127 13.7027 129.127 16.1078 129.127 18.513V18.9688L130.271 17.7136L136.151 11.1082C136.194 11.0422 136.253 10.9872 136.323 10.9481C136.393 10.909 136.471 10.8869 136.552 10.8838H140.727C140.727 11.0731 140.574 11.1643 140.472 11.2695L133.018 19.2633C132.596 19.7191 132.596 19.712 133.018 20.1819L141.164 29.1503L141.39 29.4238C141.288 29.5571 141.157 29.4939 141.048 29.4939C139.838 29.4939 138.629 29.4939 137.405 29.4939C137.279 29.5017 137.153 29.4803 137.038 29.4315C136.922 29.3827 136.821 29.3079 136.742 29.2135C134.391 26.661 132.035 24.1133 129.674 21.5703L129.142 21.0023C129.018 21.1355 129.069 21.2828 129.069 21.416C129.069 23.9614 129.069 26.5138 129.069 29.0592C129.069 29.3958 128.996 29.508 128.624 29.501C127.743 29.501 126.861 29.501 125.98 29.501C125.659 29.501 125.571 29.4168 125.571 29.1083C125.571 26.4928 125.571 23.8843 125.571 21.2687L125.601 20.9251Z" fill="#EA9926"/>
<path d="M54.4411 18.5058L54.7326 18.1201C56.4376 15.7828 58.1378 13.4571 59.8331 11.1431C59.89 11.0505 59.9727 10.9752 60.0719 10.9256C60.1711 10.876 60.2827 10.8542 60.3941 10.8626C61.696 10.8626 63.0003 10.8626 64.307 10.8626C64.562 10.8626 64.6494 10.9117 64.6494 11.1782C64.6494 17.1758 64.6494 23.1735 64.6494 29.1712C64.6494 29.4307 64.5766 29.5008 64.3143 29.4938C63.2432 29.4938 62.172 29.4938 61.0936 29.4938C60.7658 29.4938 60.7293 29.3886 60.7293 29.1151C60.7293 24.6624 60.7293 20.2027 60.9844 15.7571C60.9844 15.6308 60.9844 15.5116 60.9844 15.2873L60.7002 15.6729L54.7253 24.0243C54.4411 24.424 54.4411 24.424 54.1497 24.0243L48.1748 15.6729L47.9707 15.4065C47.9707 16.1497 47.927 16.9211 47.9707 17.6924C48.2039 21.528 48.1238 25.4057 48.1456 29.2133C48.1456 29.4728 48.0509 29.5148 47.8177 29.5078C46.732 29.5078 45.6318 29.5078 44.5607 29.5078C44.3057 29.5078 44.2401 29.4447 44.2474 29.1993C44.2474 23.1876 44.2474 17.1782 44.2474 11.1711C44.2474 10.9117 44.3421 10.8766 44.5752 10.8766C45.9087 10.8766 47.2348 10.8766 48.5682 10.8766C48.8451 10.8766 48.9471 11.0239 49.071 11.1922L54.259 18.3095L54.4411 18.5058Z" fill="white"/>
<path d="M83.1497 15.8695L82.2681 17.1527C79.5041 21.159 76.7595 25.1676 74.0344 29.1785C73.9774 29.2853 73.8889 29.3735 73.78 29.4321C73.6711 29.4908 73.5467 29.5172 73.4223 29.5081C72.1326 29.5081 70.8429 29.5081 69.5532 29.5081C69.2982 29.5081 69.2035 29.459 69.2107 29.1925C69.2107 23.1948 69.2107 17.1995 69.2107 11.2064C69.2107 10.961 69.269 10.8699 69.5459 10.8769C70.6316 10.8769 71.7319 10.8769 72.803 10.8769C73.0434 10.8769 73.1309 10.933 73.1309 11.1784C73.1309 15.1613 73.1746 19.1442 72.9341 23.099C72.9341 23.5057 72.9341 23.9194 72.9341 24.3962L73.1819 24.0456C76.1305 19.7589 79.0742 15.4698 82.013 11.1784C82.0752 11.0675 82.1697 10.9765 82.2849 10.9167C82.4002 10.8569 82.5311 10.8308 82.6615 10.8418C83.9367 10.8418 85.2118 10.8418 86.4869 10.8418C86.7711 10.8418 86.844 10.9189 86.844 11.1854C86.844 17.1691 86.844 23.1527 86.844 29.1364C86.844 29.4169 86.7638 29.48 86.4796 29.473C85.4377 29.473 84.3884 29.473 83.3465 29.473C83.0113 29.473 82.9239 29.3889 82.9239 29.0663C82.9239 24.859 82.9239 20.6518 83.157 16.4445C83.157 16.3183 83.1497 16.15 83.1497 15.8695Z" fill="white"/>
<path d="M147.686 18.9336L151.825 14.3546L154.739 11.1361C154.789 11.0595 154.858 10.9959 154.939 10.9506C155.02 10.9054 155.112 10.88 155.206 10.8766C156.524 10.8766 157.836 10.8766 159.155 10.8766C159.228 10.8726 159.301 10.8726 159.373 10.8766L158.273 12.0827C155.99 14.5323 153.705 16.9819 151.417 19.4314C151.213 19.6488 151.198 19.768 151.417 19.9994C154.215 23.0567 157.005 26.121 159.789 29.1923L160 29.4307C159.898 29.5569 159.767 29.5008 159.658 29.5008C158.448 29.5008 157.238 29.5008 156.014 29.5008C155.876 29.5097 155.738 29.4863 155.611 29.4326C155.484 29.3789 155.372 29.2964 155.286 29.1923C152.857 26.5277 150.409 23.8678 147.941 21.2125L147.7 20.9601C147.642 21.0927 147.624 21.2387 147.649 21.3808C147.649 23.9542 147.649 26.5277 147.649 29.0941C147.649 29.3886 147.591 29.5008 147.256 29.4938C146.36 29.4938 145.464 29.4938 144.567 29.4938C144.298 29.4938 144.188 29.4447 144.188 29.1572C144.188 23.1736 144.188 17.1922 144.188 11.2132C144.188 10.9257 144.298 10.8696 144.567 10.8696C145.478 10.8696 146.389 10.8696 147.292 10.8696C147.591 10.8696 147.649 10.9608 147.649 11.2272C147.649 13.6324 147.649 16.0305 147.649 18.4357L147.686 18.9336Z" fill="#EA9926"/>
<path d="M26.0871 21.6371C27.0081 20.2822 27.5473 18.6493 27.5473 16.8888C27.5473 12.1868 23.7205 8.375 19.0002 8.375C14.2798 8.375 10.453 12.1868 10.453 16.8888C10.453 18.6341 10.9807 20.2562 11.8845 21.6072C12.7335 22.8757 14.3231 24.7207 15.0128 26.0819L16.2952 28.6125H18.714H19.257H21.6765L22.9487 26.1003C23.637 24.7397 25.2292 22.8992 26.0871 21.6371Z" fill="#EFB726"/>
<path d="M12.1574 17.5165C11.8124 17.5165 11.5335 17.2387 11.5335 16.895C11.5335 12.7828 14.8919 9.4375 19.0203 9.4375C19.3653 9.4375 19.6442 9.71529 19.6442 10.059C19.6442 10.4026 19.3653 10.6804 19.0203 10.6804C15.5801 10.6804 12.7813 13.4683 12.7813 16.895C12.7813 17.2387 12.5024 17.5165 12.1574 17.5165Z" fill="#F7E6A1"/>
<path d="M18.8542 36C20.1589 36 21.2156 34.9461 21.2156 33.6465H16.4902C16.4902 34.9461 17.5488 36 18.8542 36Z" fill="#4F4F4F"/>
<path d="M16.4009 31.3601L21.4177 30.4116C21.7937 30.3418 22.0404 29.9793 21.969 29.6047C21.897 29.2301 21.542 28.9869 21.1589 29.0555L16.1422 30.0047C15.7661 30.0745 15.5194 30.4364 15.5921 30.8116C15.6546 31.1424 15.9458 31.3735 16.2715 31.3735C16.3136 31.3722 16.3563 31.3684 16.4009 31.3601Z" fill="#4F4F4F"/>
<path d="M22.1144 31.4813C22.0443 31.1067 21.6873 30.8648 21.3043 30.9321L16.2875 31.88C15.9115 31.9505 15.6635 32.3124 15.7362 32.6869C15.7987 33.0171 16.0899 33.2488 16.4156 33.2488C16.4577 33.2488 16.5017 33.2437 16.545 33.2361L21.5618 32.287C21.9391 32.2165 22.1858 31.8559 22.1144 31.4813Z" fill="#4F4F4F"/>
<path d="M18.5975 2C18.2525 2 17.9736 2.27779 17.9736 2.62146V5.10731C17.9736 5.45098 18.2525 5.72877 18.5975 5.72877C18.9425 5.72877 19.2214 5.45098 19.2214 5.10731V2.62146C19.2214 2.27779 18.9425 2 18.5975 2Z" fill="#EFCE4A"/>
<path d="M33.5711 16.915H31.0755C30.7305 16.915 30.4516 17.1928 30.4516 17.5365C30.4516 17.8802 30.7305 18.158 31.0755 18.158H33.5711C33.9161 18.158 34.195 17.8802 34.195 17.5365C34.195 17.1928 33.9161 16.915 33.5711 16.915Z" fill="#EFCE4A"/>
<path d="M6.1195 16.915H3.6239C3.27888 16.915 3 17.1928 3 17.5365C3 17.8802 3.27888 18.158 3.6239 18.158H6.1195C6.46451 18.158 6.7434 17.8802 6.7434 17.5365C6.7434 17.1928 6.46451 16.915 6.1195 16.915Z" fill="#EFCE4A"/>
<path d="M28.7446 6.55017L26.9802 8.30767C26.7363 8.55066 26.7363 8.94343 26.9802 9.18642C27.1019 9.3076 27.2616 9.36851 27.4213 9.36851C27.581 9.36851 27.7408 9.3076 27.8624 9.18642L29.6268 7.42892C29.8708 7.18593 29.8708 6.79317 29.6268 6.55017C29.3829 6.30718 28.9879 6.3078 28.7446 6.55017Z" fill="#EFCE4A"/>
<path d="M9.33263 25.8863L7.56824 27.6438C7.3243 27.8868 7.3243 28.2796 7.56824 28.5226C7.6899 28.6438 7.84962 28.7047 8.00934 28.7047C8.16906 28.7047 8.32878 28.6438 8.45044 28.5226L10.2148 26.7651C10.4588 26.5221 10.4588 26.1293 10.2148 25.8863C9.97088 25.6434 9.57658 25.6434 9.33263 25.8863Z" fill="#EFCE4A"/>
<path d="M27.8624 25.8863C27.6185 25.6434 27.2242 25.6434 26.9802 25.8863C26.7363 26.1293 26.7363 26.5221 26.9802 26.7651L28.7446 28.5226C28.8663 28.6438 29.026 28.7047 29.1857 28.7047C29.3454 28.7047 29.5052 28.6438 29.6268 28.5226C29.8708 28.2796 29.8708 27.8868 29.6268 27.6438L27.8624 25.8863Z" fill="#EFCE4A"/>
<path d="M8.45044 6.55041C8.20649 6.30742 7.81219 6.30742 7.56824 6.55041C7.3243 6.7934 7.3243 7.18616 7.56824 7.42916L9.33263 9.18665C9.45429 9.30783 9.61401 9.36874 9.77373 9.36874C9.93345 9.36874 10.0932 9.30783 10.2148 9.18665C10.4588 8.94366 10.4588 8.55089 10.2148 8.3079L8.45044 6.55041Z" fill="#EFCE4A"/>
</svg>
