<svg width="100" height="100" viewBox="0 0 100 100" fill="none" xmlns="http://www.w3.org/2000/svg">
<circle cx="50" cy="50" r="50" fill="#84DA76"/>
<path d="M45.9071 62.5443C44.8834 64.4058 43.3829 65.9568 41.562 67.0356C39.7497 68.1134 37.6804 68.6735 35.576 68.6564C33.4757 68.6678 31.4137 68.0893 29.6219 66.9853C27.8003 65.8705 26.303 64.2912 25.2813 62.407C24.231 60.441 23.6813 58.2436 23.6813 56.0111C23.6813 53.7785 24.231 51.5809 25.2813 49.6151C26.301 47.7339 27.7931 46.1552 29.6083 45.0368C31.4064 43.9189 33.4812 43.3349 35.5942 43.3519C37.7108 43.3319 39.7923 43.8972 41.612 44.9864C43.4314 46.0709 44.9275 47.6286 45.9434 49.496C46.9943 51.5045 47.5434 53.7407 47.5434 56.0111C47.5434 58.2815 46.9943 60.5176 45.9434 62.5261M72.7596 65.4654C71.7432 66.4943 70.5227 67.2962 69.178 67.8185C67.8007 68.3457 66.3382 68.6111 64.8649 68.6016C62.8688 68.6116 60.9068 68.0819 59.1833 67.0678C57.3798 66.0069 55.8918 64.478 54.8745 62.6406C53.7974 60.5959 53.234 58.3166 53.234 56.002C53.234 53.6872 53.7974 51.4079 54.8745 49.3634C55.8964 47.534 57.3836 46.0121 59.1833 44.9544C60.8971 43.9386 62.8491 43.4027 64.8376 43.4023C67.0486 43.3646 69.2238 43.9668 71.1052 45.1375C72.9536 46.3108 74.3732 48.0574 75.1504 50.1141H81C80.3589 47.8029 79.2259 45.6601 77.6797 43.8345C76.1332 42.0089 74.2109 40.5444 72.046 39.5428C69.765 38.4923 67.2817 37.9623 64.7739 37.9907C61.6884 37.9568 58.6554 38.796 56.0199 40.4126C53.7538 41.7871 51.8304 43.6666 50.3977 45.9066C49.0378 43.6763 47.1814 41.7954 44.9753 40.4126C42.4352 38.8193 39.4954 37.9916 36.5032 38.0273C34.6446 38.0159 32.802 38.3738 31.0809 39.0803C29.4297 39.7566 27.9178 40.7363 26.6221 41.9693C25.3673 43.1601 24.3438 44.5761 23.6041 46.1447L23.7041 41.4702V26H18V53.0718C18 66.056 25.3722 73.9994 35.5942 73.9994H36.5714C39.5494 74.0266 42.4723 73.1923 44.9936 71.5957C47.2146 70.2076 49.0825 68.315 50.4477 66.0698C51.8774 68.3089 53.7976 70.1883 56.0608 71.5637C58.6963 73.1803 61.7293 74.0194 64.8149 73.9856C67.3225 74.0114 69.8051 73.4815 72.087 72.4336C74.2695 71.4279 76.1977 69.9379 77.7276 68.0749C79.2734 66.1846 80.3902 63.9766 81 61.6057H75.1368C74.616 63.0579 73.7913 64.3804 72.7189 65.4836" fill="black"/>
</svg>
