<svg width="200" height="200" viewBox="0 0 200 200" fill="none" xmlns="http://www.w3.org/2000/svg">
<rect width="200" height="200" rx="25" fill="#3D81DA"/>
<path fill-rule="evenodd" clip-rule="evenodd" d="M99.7429 25.0044C98.8321 25.0472 97.9482 25.3204 97.1714 25.7972L27.5339 68.6638C25.9643 69.6388 25.0054 71.3637 25 73.2119V169.659C25.0107 172.584 27.4161 174.989 30.3411 175H169.659C172.584 174.989 174.989 172.584 175 169.659V73.2119C175 71.3637 174.041 69.6388 172.471 68.6638L102.791 25.7972C101.875 25.2347 100.814 24.9615 99.7429 25.0044ZM99.9839 36.6344L164.286 76.2172V164.286H35.7196V76.2172L99.9839 36.6344Z" fill="white"/>
<path fill-rule="evenodd" clip-rule="evenodd" d="M114.004 114.97C106.269 122.716 93.7304 122.716 85.9983 114.97C78.2635 107.221 78.2635 94.6595 85.9983 86.9133C93.7304 79.1642 106.269 79.1642 114.004 86.9133C121.739 94.6595 121.739 107.221 114.004 114.97ZM126.517 74.377C111.874 59.7037 88.1288 59.7037 73.4851 74.377C58.8387 89.0475 58.8388 112.833 73.4824 127.506L99.9998 154.07L126.517 127.506C141.161 112.833 141.161 89.0475 126.517 74.377Z" fill="white"/>
</svg>
