<svg width="200" height="200" viewBox="0 0 200 200" fill="none" xmlns="http://www.w3.org/2000/svg">
<path fill-rule="evenodd" clip-rule="evenodd" d="M99.6674 3.00565C98.4896 3.06107 97.3464 3.41442 96.3417 4.03105L6.27721 59.4719C4.24714 60.7328 3.00693 62.9638 3 65.354V190.092C3.01386 193.875 6.12479 196.986 9.90779 197H190.092C193.875 196.986 196.986 193.875 197 190.092V65.354C197 62.9638 195.76 60.7328 193.73 59.4719L103.61 4.03105C102.425 3.30357 101.053 2.95022 99.6674 3.00565ZM99.9792 18.0471L183.143 69.2409V183.143H16.8641V69.2409L99.9792 18.0471Z" fill="#3D81DA"/>
<path fill-rule="evenodd" clip-rule="evenodd" d="M116.745 118.166C107.772 127.048 93.2272 127.048 84.2581 118.166C75.2856 109.28 75.2856 94.8762 84.2581 85.9939C93.2272 77.1083 107.772 77.1083 116.745 85.9939C125.717 94.8762 125.717 109.28 116.745 118.166ZM131.26 71.619C114.273 54.7937 86.7294 54.7937 69.7428 71.619C52.7529 88.4412 52.753 115.715 69.7396 132.541L100.5 163L131.26 132.541C148.247 115.715 148.247 88.4412 131.26 71.619Z" fill="#EA9926"/>
</svg>
