<svg width="301" height="228" viewBox="0 0 301 228" fill="none" xmlns="http://www.w3.org/2000/svg">
    <path d="M133.281 173.488C128.406 182.288 121.261 189.62 112.59 194.72C103.96 199.815 94.1061 202.463 84.0852 202.382C74.0836 202.436 64.265 199.701 55.7324 194.482C47.0583 189.212 39.9283 181.746 35.0628 172.839C30.0616 163.545 27.4438 153.157 27.4438 142.603C27.4438 132.049 30.0616 121.66 35.0628 112.367C39.9187 103.474 47.0236 96.0107 55.6674 90.7235C64.23 85.439 74.1101 82.6783 84.1718 82.7588C94.2508 82.664 104.163 85.3366 112.828 90.4855C121.492 95.6124 128.616 102.976 133.454 111.804C138.458 121.299 141.073 131.87 141.073 142.603C141.073 153.336 138.458 163.907 133.454 173.402M261.15 187.297C256.31 192.161 250.498 195.952 244.095 198.421C237.536 200.913 230.572 202.168 223.556 202.123C214.051 202.17 204.708 199.666 196.501 194.872C187.913 189.857 180.827 182.629 175.983 173.943C170.854 164.277 168.171 153.502 168.171 142.56C168.171 131.617 170.854 120.842 175.983 111.177C180.849 102.529 187.931 95.3344 196.501 90.334C204.662 85.5321 213.957 82.9989 223.426 82.9968C233.955 82.8185 244.313 85.6655 253.272 91.1998C262.074 96.7463 268.834 105.003 272.535 114.726H300.39C297.337 103.8 291.942 93.6702 284.579 85.04C277.215 76.4098 268.061 69.4866 257.752 64.7514C246.89 59.7855 235.065 57.2801 223.123 57.4142C208.43 57.2542 193.987 61.2211 181.437 68.8637C170.646 75.3613 161.487 84.2462 154.665 94.8358C148.189 84.2923 139.349 75.4004 128.844 68.8637C116.748 61.3315 102.749 57.4186 88.5005 57.5874C79.6501 57.5336 70.8759 59.2252 62.6798 62.5654C54.8172 65.7625 47.6175 70.3936 41.4476 76.2224C35.4722 81.8518 30.5985 88.5457 27.0763 95.9612L27.5525 73.8633V0.72998H0.390015V128.708C0.390015 190.089 35.4956 227.64 84.1718 227.64H88.8252C103.006 227.769 116.925 223.825 128.931 216.277C139.507 209.715 148.402 200.768 154.903 190.154C161.711 200.739 170.855 209.624 181.632 216.126C194.182 223.768 208.625 227.735 223.318 227.575C235.259 227.697 247.081 225.192 257.947 220.238C268.34 215.484 277.522 208.44 284.807 199.633C292.168 190.697 297.486 180.259 300.39 169.051H272.47C269.99 175.916 266.063 182.168 260.956 187.383" fill="black"/>
    <style>
        @media (prefers-color-scheme: dark) {
            path {
                fill: #fff;
            }
        }
    </style>
</svg>
