<svg width="17" height="17" viewBox="0 0 17 17" fill="none" xmlns="http://www.w3.org/2000/svg">
<path d="M5.1 6.23334L5.55333 6.57334C5.61648 6.48915 5.65493 6.38904 5.66438 6.28423C5.67383 6.17942 5.65391 6.07404 5.60684 5.97992C5.55978 5.88579 5.48743 5.80663 5.39791 5.7513C5.30839 5.69598 5.20524 5.66667 5.1 5.66667V6.23334ZM3.4 8.5L2.94667 8.16C2.88352 8.24419 2.84507 8.3443 2.83562 8.44911C2.82617 8.55393 2.84609 8.6593 2.89316 8.75343C2.94022 8.84755 3.01257 8.92671 3.10209 8.98204C3.19161 9.03737 3.29476 9.06667 3.4 9.06667V8.5ZM14.4341 3.23454L14.8671 3.6006L14.4341 3.23454ZM2.26667 6.8H5.1V5.66667H2.26667V6.8ZM4.64667 5.89334L2.94667 8.16L3.85333 8.84L5.55333 6.57334L4.64667 5.89334ZM3.4 9.06667H3.96667V7.93334H3.4V9.06667ZM3.96667 10.2H2.26667V11.3333H3.96667V10.2ZM4.53333 9.63334C4.53333 9.78363 4.47363 9.92776 4.36736 10.034C4.26109 10.1403 4.11696 10.2 3.96667 10.2V11.3333C4.41753 11.3333 4.84994 11.1542 5.16875 10.8354C5.48756 10.5166 5.66667 10.0842 5.66667 9.63334H4.53333ZM3.96667 9.06667C4.11696 9.06667 4.26109 9.12637 4.36736 9.23264C4.47363 9.33891 4.53333 9.48305 4.53333 9.63334H5.66667C5.66667 9.18247 5.48756 8.75007 5.16875 8.43126C4.84994 8.11244 4.41753 7.93334 3.96667 7.93334V9.06667ZM9.06667 5.66667H8.5V6.8H9.06667V5.66667ZM6.8 7.36667V8.5H7.93333V7.36667H6.8ZM6.8 8.5V9.63334H7.93333V8.5H6.8ZM8.5 7.93334H7.36667V9.06667H8.5V7.93334ZM10.2 9.63334C10.2 9.18247 10.0209 8.75007 9.70208 8.43126C9.38327 8.11244 8.95087 7.93334 8.5 7.93334V9.06667C8.65029 9.06667 8.79442 9.12637 8.90069 9.23264C9.00696 9.33891 9.06667 9.48305 9.06667 9.63334H10.2ZM8.5 11.3333C8.95087 11.3333 9.38327 11.1542 9.70208 10.8354C10.0209 10.5166 10.2 10.0842 10.2 9.63334H9.06667C9.06667 9.78363 9.00696 9.92776 8.90069 10.034C8.79442 10.1403 8.65029 10.2 8.5 10.2V11.3333ZM8.5 10.2C8.34971 10.2 8.20558 10.1403 8.09931 10.034C7.99304 9.92776 7.93333 9.78363 7.93333 9.63334H6.8C6.8 10.0842 6.97911 10.5166 7.29792 10.8354C7.61673 11.1542 8.04913 11.3333 8.5 11.3333V10.2ZM8.5 5.66667C8.04913 5.66667 7.61673 5.84578 7.29792 6.16459C6.97911 6.4834 6.8 6.9158 6.8 7.36667H7.93333C7.93333 7.21638 7.99304 7.07225 8.09931 6.96598C8.20558 6.85971 8.34971 6.8 8.5 6.8V5.66667ZM13.6 7.36667V9.63334H14.7333V7.36667H13.6ZM12.4667 9.63334V7.36667H11.3333V9.63334H12.4667ZM13.0333 10.2C12.883 10.2 12.7389 10.1403 12.6326 10.034C12.5264 9.92776 12.4667 9.78363 12.4667 9.63334H11.3333C11.3333 10.0842 11.5124 10.5166 11.8313 10.8354C12.1501 11.1542 12.5825 11.3333 13.0333 11.3333V10.2ZM13.6 9.63334C13.6 9.78363 13.5403 9.92776 13.434 10.034C13.3278 10.1403 13.1836 10.2 13.0333 10.2V11.3333C13.4842 11.3333 13.9166 11.1542 14.2354 10.8354C14.5542 10.5166 14.7333 10.0842 14.7333 9.63334H13.6ZM13.0333 6.8C13.1836 6.8 13.3278 6.85971 13.434 6.96598C13.5403 7.07225 13.6 7.21638 13.6 7.36667H14.7333C14.7333 6.9158 14.5542 6.4834 14.2354 6.16459C13.9166 5.84578 13.4842 5.66667 13.0333 5.66667V6.8ZM13.0333 5.66667C12.5825 5.66667 12.1501 5.84578 11.8313 6.16459C11.5124 6.4834 11.3333 6.9158 11.3333 7.36667H12.4667C12.4667 7.21638 12.5264 7.07225 12.6326 6.96598C12.7389 6.85971 12.883 6.8 13.0333 6.8V5.66667ZM8.5 15.8667C6.54624 15.8667 4.6725 15.0905 3.29098 13.709C1.90946 12.3275 1.13333 10.4538 1.13333 8.5H0C0 10.7543 0.895533 12.9164 2.48959 14.5104C4.08365 16.1045 6.24566 17 8.5 17V15.8667ZM15.8667 8.5C15.8667 9.46741 15.6761 10.4253 15.3059 11.3191C14.9357 12.2129 14.3931 13.025 13.709 13.709C13.025 14.3931 12.2129 14.9357 11.3191 15.3059C10.4253 15.6761 9.4674 15.8667 8.5 15.8667V17C10.7543 17 12.9163 16.1045 14.5104 14.5104C16.1045 12.9164 17 10.7543 17 8.5H15.8667ZM8.5 4.69636e-06C6.24566 4.69636e-06 4.08365 0.895538 2.48959 2.4896C0.895533 4.08366 0 6.24566 0 8.5H1.13333C1.13333 6.54624 1.90946 4.6725 3.29098 3.29098C4.6725 1.90947 6.54624 1.13334 8.5 1.13334V4.69636e-06ZM15.3 3.4C15.4503 3.4 15.5944 3.45971 15.7007 3.56598C15.807 3.67225 15.8667 3.81638 15.8667 3.96667H17C17 3.5158 16.8209 3.0834 16.5021 2.76459C16.1833 2.44578 15.7509 2.26667 15.3 2.26667V3.4ZM15.3 4.53334C15.1497 4.53334 15.0056 4.47364 14.8993 4.36736C14.793 4.26109 14.7333 4.11696 14.7333 3.96667H13.6C13.6 4.41754 13.7791 4.84994 14.0979 5.16875C14.4167 5.48757 14.8491 5.66667 15.3 5.66667V4.53334ZM14.7333 3.96667C14.7333 3.82727 14.7832 3.70034 14.8671 3.6006L14.0023 2.86847C13.7519 3.16427 13.6 3.54847 13.6 3.96667H14.7333ZM14.8671 3.6006C14.9202 3.53758 14.9865 3.48696 15.0613 3.4523C15.1361 3.41765 15.2176 3.3998 15.3 3.4V2.26667C14.7787 2.26667 14.3129 2.50127 14.0023 2.86847L14.8671 3.6006ZM8.5 1.13334C10.6919 1.13334 12.6605 2.08987 14.0103 3.6108L14.858 2.85827C14.0612 1.95855 13.0824 1.23845 11.9863 0.745681C10.8901 0.252914 9.70179 -0.00125999 8.5 4.69636e-06V1.13334ZM15.1345 5.29267C15.6037 6.2628 15.8667 7.34967 15.8667 8.5H17C17 7.17401 16.6963 5.9194 16.1545 4.79967L15.1345 5.2938V5.29267ZM15.8667 3.96667C15.8668 4.08698 15.8287 4.20421 15.7578 4.30141C15.6869 4.3986 15.5869 4.4707 15.4723 4.50727L15.8168 5.5862C16.1603 5.4766 16.46 5.26064 16.6727 4.96952C16.8854 4.6784 17 4.32721 17 3.96667H15.8667ZM15.4723 4.50727C15.4165 4.52479 15.3584 4.53358 15.3 4.53334V5.66667C15.4753 5.66704 15.6497 5.64027 15.8168 5.58734L15.4723 4.50727Z" fill="black"/>
</svg>
