<svg width="40" height="40" viewBox="0 0 40 40" fill="none" xmlns="http://www.w3.org/2000/svg">
<path d="M25.334 20H26.8C27.1183 20 27.4235 20.1264 27.6485 20.3515C27.8736 20.5765 28 20.8817 28 21.2V28.8C28 28.9576 27.969 29.1136 27.9087 29.2592C27.8483 29.4048 27.76 29.5371 27.6485 29.6485C27.5371 29.76 27.4048 29.8484 27.2592 29.9087C27.1136 29.969 26.9576 30 26.8 30H13.2C13.0424 30 12.8864 29.969 12.7408 29.9087C12.5952 29.8484 12.4629 29.76 12.3515 29.6485C12.24 29.5371 12.1517 29.4048 12.0913 29.2592C12.031 29.1136 12 28.9576 12 28.8V21.2C12 20.8817 12.1264 20.5765 12.3515 20.3515C12.5765 20.1264 12.8817 20 13.2 20H14.666M25.334 20V15C25.334 13.334 24.266 10 20 10C15.734 10 14.666 13.334 14.666 15V20M25.334 20H14.666" stroke="#3D81DA" stroke-width="4.4" stroke-linecap="round" stroke-linejoin="round"/>
<path d="M2 34V6C2 4.93913 2.42143 3.92172 3.17157 3.17157C3.92172 2.42143 4.93913 2 6 2H34C35.0609 2 36.0783 2.42143 36.8284 3.17157C37.5786 3.92172 38 4.93913 38 6V34C38 35.0609 37.5786 36.0783 36.8284 36.8284C36.0783 37.5786 35.0609 38 34 38H6C4.93913 38 3.92172 37.5786 3.17157 36.8284C2.42143 36.0783 2 35.0609 2 34Z" stroke="#3D81DA" stroke-width="4"/>
</svg>
