<svg width="16" height="16" viewBox="0 0 16 16" fill="none" xmlns="http://www.w3.org/2000/svg">
<path d="M13.914 1.02972L8.00099 6.94272L2.08799 1.02972C1.94578 0.899583 1.75883 0.82933 1.5661 0.8336C1.37338 0.837871 1.18973 0.916335 1.05342 1.05265C0.917103 1.18896 0.838638 1.37261 0.834368 1.56534C0.830098 1.75806 0.900351 1.94501 1.03049 2.08722L6.94049 8.00022L1.02899 13.9117C0.95677 13.9806 0.899037 14.0631 0.859185 14.1546C0.819334 14.246 0.798168 14.3445 0.796932 14.4443C0.795697 14.5441 0.814417 14.6431 0.851991 14.7355C0.889565 14.8279 0.945236 14.9119 1.01573 14.9825C1.08623 15.0531 1.17012 15.1089 1.26249 15.1466C1.35485 15.1843 1.45382 15.2031 1.55358 15.202C1.65334 15.2009 1.75188 15.1799 1.84339 15.1402C1.93491 15.1005 2.01756 15.0428 2.08649 14.9707L8.00099 9.05923L13.914 14.9722C14.0562 15.1024 14.2431 15.1726 14.4359 15.1683C14.6286 15.1641 14.8123 15.0856 14.9486 14.9493C15.0849 14.813 15.1633 14.6293 15.1676 14.4366C15.1719 14.2439 15.1016 14.0569 14.9715 13.9147L9.05849 8.00172L14.9715 2.08722C15.0437 2.0184 15.1014 1.93583 15.1413 1.84437C15.1811 1.75291 15.2023 1.6544 15.2035 1.55464C15.2048 1.45489 15.1861 1.35589 15.1485 1.26347C15.1109 1.17105 15.0552 1.08708 14.9847 1.01648C14.9143 0.945886 14.8304 0.890096 14.738 0.852391C14.6456 0.814686 14.5467 0.795826 14.4469 0.79692C14.3471 0.798014 14.2486 0.81904 14.1571 0.858762C14.0656 0.898484 13.9829 0.9561 13.914 1.02822V1.02972Z" fill="#1D1E1E"/>
</svg>
