<svg width="21" height="20" viewBox="0 0 21 20" fill="none" xmlns="http://www.w3.org/2000/svg">
<path d="M3 6.69643C3 6.154 3.41973 5.71428 3.9375 5.71428H17.0625C17.5803 5.71428 18 6.154 18 6.69643C18 7.23885 17.5803 7.67857 17.0625 7.67857H3.9375C3.41973 7.67857 3 7.23885 3 6.69643Z" fill="white"/>
<path d="M10.5 6.69643C10.5 8.32369 9.2408 9.64285 7.6875 9.64285C6.1342 9.64285 4.875 8.32369 4.875 6.69643C4.875 5.06916 6.1342 3.75 7.6875 3.75C9.2408 3.75 10.5 5.06916 10.5 6.69643Z" fill="white"/>
<path d="M3 14.5536C3 14.0112 3.41973 13.5714 3.9375 13.5714H17.0625C17.5803 13.5714 18 14.0112 18 14.5536C18 15.096 17.5803 15.5357 17.0625 15.5357H3.9375C3.41973 15.5357 3 15.096 3 14.5536Z" fill="white"/>
<path d="M16.125 14.5536C16.125 16.1808 14.8658 17.5 13.3125 17.5C11.7592 17.5 10.5 16.1808 10.5 14.5536C10.5 12.9263 11.7592 11.6071 13.3125 11.6071C14.8658 11.6071 16.125 12.9263 16.125 14.5536Z" fill="white"/>
</svg>
