<svg width="40" height="40" viewBox="0 0 40 40" fill="none" xmlns="http://www.w3.org/2000/svg">
<g clip-path="url(#clip0_2355_16311)">
<path d="M34.9994 31.6667H38.3327V35H1.66602V31.6667H4.99935V6.66667C4.99935 6.22464 5.17494 5.80072 5.4875 5.48816C5.80007 5.17559 6.22399 5 6.66602 5H23.3327C23.7747 5 24.1986 5.17559 24.5112 5.48816C24.8238 5.80072 24.9993 6.22464 24.9993 6.66667V31.6667H31.666V18.3333H28.3327V15H33.3327C33.7747 15 34.1986 15.1756 34.5112 15.4882C34.8238 15.8007 34.9994 16.2246 34.9994 16.6667V31.6667ZM8.33268 8.33333V31.6667H21.666V8.33333H8.33268ZM11.666 18.3333H18.3327V21.6667H11.666V18.3333ZM11.666 11.6667H18.3327V15H11.666V11.6667Z" fill="white"/>
</g>
<defs>
<clipPath id="clip0_2355_16311">
<rect width="40" height="40" fill="white"/>
</clipPath>
</defs>
</svg>
