<svg width="20" height="18" viewBox="0 0 20 18" fill="none" xmlns="http://www.w3.org/2000/svg">
<path d="M16.2513 11.0917L16.2596 11.0825M10.8346 14.1667L13.7513 13.1667L18.3346 14.8333M1.66797 7.33333V2C1.66797 1.86739 1.72065 1.74021 1.81442 1.64645C1.90818 1.55268 2.03536 1.5 2.16797 1.5H7.3163C7.43547 1.49999 7.55073 1.54255 7.6413 1.62L10.278 3.88C10.3685 3.95745 10.4838 4.00001 10.603 4H17.8346C17.9003 4 17.9653 4.01293 18.026 4.03806C18.0866 4.06319 18.1418 4.10002 18.1882 4.14645C18.2346 4.19288 18.2714 4.248 18.2966 4.30866C18.3217 4.36932 18.3346 4.43434 18.3346 4.5V6.5M1.66797 7.33333V14.3333C1.66797 14.4659 1.72065 14.5931 1.81442 14.6869C1.90818 14.7807 2.03536 14.8333 2.16797 14.8333H8.33464M1.66797 7.33333H8.33464M18.3346 9.5V16C18.3346 16.0657 18.3217 16.1307 18.2966 16.1913C18.2714 16.252 18.2346 16.3071 18.1882 16.3536C18.1418 16.4 18.0866 16.4368 18.026 16.4619C17.9653 16.4871 17.9003 16.5 17.8346 16.5H11.3346C11.202 16.5 11.0748 16.4473 10.9811 16.3536C10.8873 16.2598 10.8346 16.1326 10.8346 16V9.5C10.8346 9.36739 10.8873 9.24021 10.9811 9.14645C11.0748 9.05268 11.202 9 11.3346 9H17.8346C17.9003 9 17.9653 9.01293 18.026 9.03806C18.0866 9.06319 18.1418 9.10002 18.1882 9.14645C18.2346 9.19288 18.2714 9.248 18.2966 9.30866C18.3217 9.36932 18.3346 9.43434 18.3346 9.5Z" stroke="black" stroke-width="1.6" stroke-linecap="round" stroke-linejoin="round"/>
</svg>
