<svg width="13" height="14" viewBox="0 0 13 14" fill="none" xmlns="http://www.w3.org/2000/svg">
<path d="M1 3.08716H12" stroke="#A1A6AA" stroke-linecap="round" stroke-linejoin="round"/>
<path d="M1 6.21729H12" stroke="#A1A6AA" stroke-linecap="round" stroke-linejoin="round"/>
<path d="M12 10.913H1V2.56522C1 2.1501 1.16171 1.75198 1.44956 1.45844C1.7374 1.16491 2.12781 1 2.53488 1H10.4651C10.8722 1 11.2626 1.16491 11.5504 1.45844C11.8383 1.75198 12 2.1501 12 2.56522V10.913Z" stroke="#A1A6AA" stroke-linecap="round" stroke-linejoin="round"/>
<path d="M11.9995 10.9131V12.4783C11.9995 12.6167 11.9456 12.7494 11.8497 12.8472C11.7537 12.9451 11.6236 13 11.4879 13H9.95303C9.81734 13 9.68721 12.9451 9.59126 12.8472C9.49531 12.7494 9.44141 12.6167 9.44141 12.4783V10.9131" stroke="#A1A6AA" stroke-linecap="round" stroke-linejoin="round"/>
<path d="M3.55814 10.9131V12.4783C3.55814 12.6167 3.50424 12.7494 3.40829 12.8472C3.31234 12.9451 3.1822 13 3.04651 13H1.51163C1.37594 13 1.2458 12.9451 1.14985 12.8472C1.0539 12.7494 1 12.6167 1 12.4783V10.9131" stroke="#A1A6AA" stroke-linecap="round" stroke-linejoin="round"/>
<path d="M3.68541 9.34769C4.10926 9.34769 4.45285 8.9973 4.45285 8.56508C4.45285 8.13286 4.10926 7.78247 3.68541 7.78247C3.26156 7.78247 2.91797 8.13286 2.91797 8.56508C2.91797 8.9973 3.26156 9.34769 3.68541 9.34769Z" fill="#A1A6AA"/>
<path d="M9.31432 9.34769C9.73816 9.34769 10.0818 8.9973 10.0818 8.56508C10.0818 8.13286 9.73816 7.78247 9.31432 7.78247C8.89047 7.78247 8.54688 8.13286 8.54688 8.56508C8.54688 8.9973 8.89047 9.34769 9.31432 9.34769Z" fill="#A1A6AA"/>
</svg>
