<svg width="16" height="14" viewBox="0 0 16 14" fill="none" xmlns="http://www.w3.org/2000/svg">
<path d="M1 6.14282H15" stroke="#A1A6AA" stroke-linecap="round" stroke-linejoin="round"/>
<path d="M14 10.7144V12.4286C14 12.5802 13.9473 12.7255 13.8536 12.8327C13.7598 12.9399 13.6326 13.0001 13.5 13.0001H12C11.8674 13.0001 11.7402 12.9399 11.6464 12.8327C11.5527 12.7255 11.5 12.5802 11.5 12.4286V10.7144" stroke="#A1A6AA" stroke-linecap="round" stroke-linejoin="round"/>
<path d="M4.5 10.7144V12.4286C4.5 12.5802 4.44732 12.7255 4.35355 12.8327C4.25979 12.9399 4.13261 13.0001 4 13.0001H2.5C2.36739 13.0001 2.24021 12.9399 2.14645 12.8327C2.05268 12.7255 2 12.5802 2 12.4286V10.7144" stroke="#A1A6AA" stroke-linecap="round" stroke-linejoin="round"/>
<path d="M4 8.42847H5" stroke="#A1A6AA" stroke-linecap="round" stroke-linejoin="round"/>
<path d="M11 8.42847H12" stroke="#A1A6AA" stroke-linecap="round" stroke-linejoin="round"/>
<path d="M14 6.14286L12.132 1.33935C12.0927 1.23834 12.0286 1.15252 11.9475 1.09229C11.8664 1.03206 11.7718 1 11.6751 1H4.32494C4.22822 1 4.13358 1.03206 4.05248 1.09229C3.97138 1.15252 3.90731 1.23834 3.86803 1.33935L2 6.14286V10.7143H14V6.14286Z" stroke="#A1A6AA" stroke-linecap="round" stroke-linejoin="round"/>
</svg>
