<svg width="19" height="22" viewBox="0 0 19 22" fill="none" xmlns="http://www.w3.org/2000/svg">
<path d="M15.864 15.364L9.5 21.728L3.136 15.364C1.87734 14.1054 1.02019 12.5017 0.672928 10.7559C0.32567 9.01007 0.503907 7.20047 1.1851 5.55595C1.86629 3.91142 3.01984 2.50582 4.49988 1.51689C5.97992 0.52796 7.71998 0.00012207 9.5 0.00012207C11.28 0.00012207 13.0201 0.52796 14.5001 1.51689C15.9802 2.50582 17.1337 3.91142 17.8149 5.55595C18.4961 7.20047 18.6743 9.01007 18.3271 10.7559C17.9798 12.5017 17.1227 14.1054 15.864 15.364ZM9.5 11C10.0304 11 10.5391 10.7893 10.9142 10.4143C11.2893 10.0392 11.5 9.53048 11.5 9.00004C11.5 8.46961 11.2893 7.9609 10.9142 7.58583C10.5391 7.21076 10.0304 7.00004 9.5 7.00004C8.96957 7.00004 8.46086 7.21076 8.08579 7.58583C7.71072 7.9609 7.5 8.46961 7.5 9.00004C7.5 9.53048 7.71072 10.0392 8.08579 10.4143C8.46086 10.7893 8.96957 11 9.5 11Z" fill="white"/>
</svg>
