<svg width="58" height="60" viewBox="0 0 58 60" fill="none" xmlns="http://www.w3.org/2000/svg">
<path d="M1 56V49.2071C1 48.7617 1.5383 48.5383 1.85328 48.8533C3.26719 50.2672 5.17324 52.1732 5.5 52.5C5.82287 52.8229 7.68769 50.7785 9.09605 49.1016C9.40002 48.7397 10 48.9528 10 49.4254V58.5C10 58.7761 10.2239 59 10.5 59H17C17.2761 59 17.5 58.7761 17.5 58.5V42.7071C17.5 42.2617 18.0386 42.0386 18.3536 42.3536L22.2981 46.2981C22.5885 46.5885 23.0857 46.4244 23.1462 46.0182L26.4697 23.7031C26.4891 23.573 26.559 23.4557 26.6643 23.3768L28.5 22" stroke="#3E82DA" stroke-width="2" stroke-linecap="round" stroke-linejoin="round"/>
<path d="M56.5 56V49.2071C56.5 48.7617 55.9617 48.5383 55.6467 48.8533C54.2328 50.2672 52.3268 52.1732 52 52.5C51.6771 52.8229 49.8123 50.7785 48.4039 49.1016C48.1 48.7397 47.5 48.9528 47.5 49.4254V58.5C47.5 58.7761 47.2761 59 47 59H40.5C40.2239 59 40 58.7761 40 58.5V42.7071C40 42.2617 39.4614 42.0386 39.1464 42.3536L35.2019 46.2981C34.9115 46.5885 34.4143 46.4244 34.3538 46.0182L31.0303 23.7031C31.0109 23.573 30.941 23.4557 30.8357 23.3768L29 22" stroke="#3E82DA" stroke-width="2" stroke-linecap="round" stroke-linejoin="round"/>
<path d="M27.546 1.98433C27.7247 1.5969 28.2753 1.5969 28.454 1.98433L30.7041 6.86257C30.777 7.02048 30.9266 7.1292 31.0993 7.14967L36.4341 7.7822C36.8578 7.83243 37.028 8.35613 36.7147 8.64581L32.7706 12.2933C32.6429 12.4113 32.5857 12.5872 32.6196 12.7578L33.6666 18.027C33.7497 18.4454 33.3043 18.7691 32.932 18.5607L28.2442 15.9367C28.0925 15.8518 27.9075 15.8518 27.7558 15.9367L23.068 18.5607C22.6957 18.7691 22.2503 18.4454 22.3334 18.027L23.3804 12.7578C23.4143 12.5872 23.3571 12.4113 23.2294 12.2933L19.2853 8.64581C18.972 8.35613 19.1422 7.83243 19.5659 7.7822L24.9007 7.14967C25.0734 7.1292 25.223 7.02048 25.2959 6.86257L27.546 1.98433Z" stroke="#3E82DA" stroke-width="2" stroke-linecap="round" stroke-linejoin="round"/>
</svg>
