<svg width="16" height="15" viewBox="0 0 16 15" fill="none" xmlns="http://www.w3.org/2000/svg">
<path d="M0.75 3.69643C0.75 3.154 1.16973 2.71428 1.6875 2.71428H14.8125C15.3303 2.71428 15.75 3.154 15.75 3.69643C15.75 4.23885 15.3303 4.67857 14.8125 4.67857H1.6875C1.16973 4.67857 0.75 4.23885 0.75 3.69643Z" fill="white"/>
<path d="M8.25 3.69643C8.25 5.32369 6.9908 6.64285 5.4375 6.64285C3.8842 6.64285 2.625 5.32369 2.625 3.69643C2.625 2.06916 3.8842 0.75 5.4375 0.75C6.9908 0.75 8.25 2.06916 8.25 3.69643Z" fill="white"/>
<path d="M0.75 11.5536C0.75 11.0112 1.16973 10.5714 1.6875 10.5714H14.8125C15.3303 10.5714 15.75 11.0112 15.75 11.5536C15.75 12.096 15.3303 12.5357 14.8125 12.5357H1.6875C1.16973 12.5357 0.75 12.096 0.75 11.5536Z" fill="white"/>
<path d="M13.875 11.5536C13.875 13.1808 12.6158 14.5 11.0625 14.5C9.5092 14.5 8.25 13.1808 8.25 11.5536C8.25 9.92631 9.5092 8.60715 11.0625 8.60715C12.6158 8.60715 13.875 9.92631 13.875 11.5536Z" fill="white"/>
</svg>
