<svg width="16" height="18" viewBox="0 0 16 18" fill="none" xmlns="http://www.w3.org/2000/svg">
<path fill-rule="evenodd" clip-rule="evenodd" d="M10.0447 0.473508C8.86636 0.175497 7.63364 0.175497 6.45532 0.473508C4.74924 0.904996 3.25083 1.93708 2.22866 3.38477L2.00581 3.70039C1.37798 4.5896 0.970529 5.61839 0.81777 6.70015C0.605744 8.20162 0.894474 9.73175 1.63831 11.0486L1.98078 11.6549C2.44334 12.4738 3.03223 13.2127 3.72522 13.8437L7.84145 17.5914C8.07371 17.8029 8.42629 17.8029 8.65856 17.5914L12.7748 13.8437C13.4678 13.2127 14.0567 12.4738 14.5192 11.6549L14.8617 11.0486C15.6055 9.73175 15.8943 8.20162 15.6822 6.70015C15.5295 5.61839 15.122 4.5896 14.4942 3.70039L14.2713 3.38477C13.2492 1.93708 11.7508 0.904996 10.0447 0.473508ZM8.25 10.9538C9.93648 10.9538 11.3036 9.5707 11.3036 7.86458C11.3036 6.15847 9.93648 4.77539 8.25 4.77539C6.56353 4.77539 5.19637 6.15847 5.19637 7.86458C5.19637 9.5707 6.56353 10.9538 8.25 10.9538Z" fill="#3D81DA"/>
<path d="M6.58651 0.992206C7.67873 0.715971 8.82127 0.715971 9.91349 0.992206C11.4949 1.39215 12.8852 2.34915 13.8343 3.69337L14.0571 4.00899C14.6357 4.82847 15.0115 5.77707 15.1525 6.77497C15.3481 8.16015 15.0816 9.57145 14.3958 10.7855L14.0534 11.3918C13.6187 12.1614 13.0654 12.8555 12.4146 13.448L8.29835 17.1958C8.27025 17.2214 8.22975 17.2214 8.20165 17.1958L4.08542 13.448C3.43462 12.8555 2.88133 12.1614 2.44663 11.3918L2.10416 10.7855C1.41841 9.57144 1.15194 8.16015 1.34754 6.77497C1.48846 5.77707 1.86427 4.82847 2.44288 4.00899L2.66573 3.69337C3.61483 2.34915 5.00513 1.39215 6.58651 0.992206ZM8.25 11.4888C10.2378 11.4888 11.8387 9.86033 11.8387 7.86458C11.8387 5.86884 10.2378 4.24036 8.25 4.24036C6.26221 4.24036 4.66134 5.86884 4.66134 7.86458C4.66134 9.86033 6.26221 11.4888 8.25 11.4888Z" stroke="#3D81DA" stroke-width="1.07006"/>
</svg>
