<svg width="40" height="37" viewBox="0 0 40 37" fill="none" xmlns="http://www.w3.org/2000/svg">
<path d="M2 30.9999H0H2ZM6 8.99992V6.99992V8.99992ZM34 8.99992V6.99992V8.99992ZM28 21.9999H26H28ZM32 6.20592H34V6.20536L32 6.20592ZM26.97 2.34192L26.455 0.409362L26.4547 0.409434L26.97 2.34192ZM4.97 8.20792L5.485 10.1405L5.48527 10.1404L4.97 8.20792ZM2 12.0739H4L4 12.0735L2 12.0739ZM34 32.9999H6V36.9999H34V32.9999ZM6 32.9999C5.46957 32.9999 4.96086 32.7892 4.58579 32.4141L1.75736 35.2426C2.88258 36.3678 4.4087 36.9999 6 36.9999V32.9999ZM4.58579 32.4141C4.21071 32.0391 4 31.5304 4 30.9999H0C0 32.5912 0.632141 34.1173 1.75736 35.2426L4.58579 32.4141ZM4 30.9999V12.9999H0V30.9999H4ZM4 12.9999C4 12.4695 4.21071 11.9608 4.58579 11.5857L1.75736 8.75728C0.632141 9.8825 0 11.4086 0 12.9999H4ZM4.58579 11.5857C4.96086 11.2106 5.46957 10.9999 6 10.9999V6.99992C4.4087 6.99992 2.88258 7.63206 1.75736 8.75728L4.58579 11.5857ZM6 10.9999H34V6.99992H6V10.9999ZM34 10.9999C34.5304 10.9999 35.0391 11.2106 35.4142 11.5857L38.2426 8.75728C37.1174 7.63206 35.5913 6.99992 34 6.99992V10.9999ZM35.4142 11.5857C35.7893 11.9608 36 12.4695 36 12.9999H40C40 11.4086 39.3679 9.88249 38.2426 8.75728L35.4142 11.5857ZM36 12.9999V30.9999H40V12.9999H36ZM36 30.9999C36 31.5304 35.7893 32.0391 35.4142 32.4141L38.2426 35.2426C39.3679 34.1173 40 32.5912 40 30.9999H36ZM35.4142 32.4141C35.0391 32.7892 34.5304 32.9999 34 32.9999V36.9999C35.5913 36.9999 37.1174 36.3678 38.2426 35.2426L35.4142 32.4141ZM29 20.9999C29.2652 20.9999 29.5196 21.1053 29.7071 21.2928L26.8787 24.1212C27.4413 24.6839 28.2044 24.9999 29 24.9999V20.9999ZM29.7071 21.2928C29.8946 21.4804 30 21.7347 30 21.9999H26C26 22.7956 26.3161 23.5586 26.8787 24.1212L29.7071 21.2928ZM30 21.9999C30 22.2651 29.8946 22.5195 29.7071 22.707L26.8787 19.8786C26.3161 20.4412 26 21.2043 26 21.9999H30ZM29.7071 22.707C29.5196 22.8946 29.2652 22.9999 29 22.9999V18.9999C28.2043 18.9999 27.4413 19.316 26.8787 19.8786L29.7071 22.707ZM29 22.9999C28.7348 22.9999 28.4804 22.8946 28.2929 22.707L31.1213 19.8786C30.5587 19.316 29.7957 18.9999 29 18.9999V22.9999ZM28.2929 22.707C28.1054 22.5195 28 22.2651 28 21.9999H32C32 21.2043 31.6839 20.4412 31.1213 19.8786L28.2929 22.707ZM28 21.9999C28 21.7347 28.1054 21.4803 28.2929 21.2928L31.1213 24.1212C31.6839 23.5586 32 22.7956 32 21.9999H28ZM28.2929 21.2928C28.4804 21.1053 28.7348 20.9999 29 20.9999V24.9999C29.7956 24.9999 30.5587 24.6839 31.1213 24.1212L28.2929 21.2928ZM34 8.99992V6.20592H30V8.99992H34ZM34 6.20536C33.9997 5.28587 33.7882 4.37874 33.3816 3.55401L29.7939 5.32269C29.9294 5.5976 29.9999 5.89997 30 6.20648L34 6.20536ZM33.3816 3.55401C32.975 2.72929 32.3843 2.00905 31.6552 1.4489L29.2184 4.62099C29.4614 4.8077 29.6583 5.04778 29.7939 5.32269L33.3816 3.55401ZM31.6552 1.4489C30.926 0.888749 30.0778 0.503684 29.1762 0.323439L28.3921 4.24583C28.6926 4.30592 28.9753 4.43427 29.2184 4.62099L31.6552 1.4489ZM29.1762 0.323439C28.2745 0.143195 27.3435 0.172592 26.455 0.409362L27.485 4.27447C27.7812 4.19555 28.0915 4.18575 28.3921 4.24583L29.1762 0.323439ZM26.4547 0.409434L4.45473 6.27543L5.48527 10.1404L27.4853 4.2744L26.4547 0.409434ZM4.455 6.27536C3.17716 6.61589 2.04762 7.36904 1.24197 8.41774L4.41399 10.8546C4.68254 10.505 5.05905 10.254 5.485 10.1405L4.455 6.27536ZM1.24197 8.41774C0.436322 9.46644 -0.000293016 10.7519 1.19209e-07 12.0744L4 12.0735C3.9999 11.6327 4.14544 11.2042 4.41399 10.8546L1.24197 8.41774ZM1.19209e-07 12.0739L0 12.9999H4V12.0739H1.19209e-07Z" fill="#3D81DA"/>
</svg>
