<svg width="66" height="50" viewBox="0 0 66 50" fill="none" xmlns="http://www.w3.org/2000/svg">
<path d="M3.5 29.5C4 28 10.5 22.5 16 24.5C20.4 26.1 26.8333 34.8333 29.5 39" stroke="#3E82DA" stroke-width="2" stroke-linecap="round" stroke-linejoin="round"/>
<path d="M18.5 6.99998C18.8333 5.66665 20.2 2.79998 23 1.99998C26.5 0.99998 29 5.49998 29.5 5.49998C30 5.49998 32 4.5 33.5 6C34.7 7.2 35 7.83333 35 8C35.3333 7.66666 36.2 6.99998 37 6.99998C37.8 6.99998 38.6667 7.33333 39 7.5" stroke="#3E82DA" stroke-width="2" stroke-linecap="round" stroke-linejoin="round"/>
<path d="M3 43.9999C5.83333 46.1666 13.8 49.9999 23 47.9999C34.5 45.4999 40 32.9999 50 33.4999C58 33.8999 62.3333 36.3333 63.5 37.5" stroke="#3E82DA" stroke-width="2" stroke-linecap="round" stroke-linejoin="round"/>
<path d="M27 29C28.1667 28.1667 31.2 26.6 34 27C36.8 27.4 39.8333 30.8333 41 32.5" stroke="#3E82DA" stroke-width="2" stroke-linecap="round" stroke-linejoin="round"/>
<path d="M1 14.5C1.5 14 2.8 13 4 13C5.2 13 5.83333 13.3333 6 13.5C6.33333 11.8333 7.8 8.5 11 8.5C14.2 8.5 16 11.1667 16.5 12.5C17.1667 12 18.8 11.2 20 12C21.2 12.8 21.1667 14.3333 21 15C22.3333 14.6667 25.6 14 28 14C30.4 14 32.3333 15 33 15.5" stroke="#3E82DA" stroke-width="2" stroke-linecap="round" stroke-linejoin="round"/>
<path d="M40.4995 19C40.1011 14.6181 44.9995 5.5 47.4995 1C49.4995 5.16667 53.9995 13.5 53.9995 19C53.9995 24.5 49.6661 25.5 47.4995 25.5C45.1661 25.1667 40.9995 24.5 40.4995 19Z" stroke="#3E82DA" stroke-width="2" stroke-linecap="round" stroke-linejoin="round"/>
<path d="M56 12.5L59 7.5C61 10.5 64.5 16.5 64.5 20.5C64.5 25.5 62.1403 27.4719 59.5 28C57 28.5 55 27 54 26" stroke="#3E82DA" stroke-width="2" stroke-linecap="round" stroke-linejoin="round"/>
<path d="M47.5 25.5V33.5" stroke="#3E82DA" stroke-width="2" stroke-linecap="round" stroke-linejoin="round"/>
<path d="M58 28.5L58 34.5" stroke="#3E82DA" stroke-width="2" stroke-linecap="round" stroke-linejoin="round"/>
</svg>
