<svg width="18" height="18" viewBox="0 0 18 18" fill="none" xmlns="http://www.w3.org/2000/svg">
<path d="M1.74706 16.1683L7.0504 10.865M13.7287 8.50665L12.1412 13.2692C12.1159 13.3455 12.0725 13.4146 12.0148 13.4706C11.957 13.5266 11.8866 13.5678 11.8096 13.5908L2.0779 16.4833C1.99022 16.5094 1.89709 16.5109 1.80862 16.4876C1.72016 16.4644 1.63976 16.4174 1.57617 16.3516C1.51258 16.2859 1.46824 16.204 1.44798 16.1148C1.42771 16.0256 1.4323 15.9326 1.46123 15.8458L4.62123 6.36749C4.64388 6.29943 4.6809 6.23705 4.72979 6.18456C4.77868 6.13208 4.83828 6.09073 4.90456 6.06332L9.39373 4.21499C9.485 4.17729 9.58538 4.16747 9.68222 4.18675C9.77906 4.20603 9.86803 4.25355 9.9379 4.32332L13.6079 7.99415C13.6737 8.05988 13.7199 8.14267 13.7412 8.23321C13.7626 8.32375 13.7583 8.41844 13.7287 8.50665Z" stroke="black" stroke-width="2" stroke-linecap="round" stroke-linejoin="round"/>
<path d="M13.8266 8.21333L16.1833 5.85583C16.4957 5.54328 16.6713 5.11943 16.6713 4.67749C16.6713 4.23555 16.4957 3.81171 16.1833 3.49916L14.4166 1.73083C14.2618 1.57599 14.0781 1.45316 13.8758 1.36936C13.6736 1.28556 13.4568 1.24243 13.2379 1.24243C13.0189 1.24243 12.8022 1.28556 12.5999 1.36936C12.3977 1.45316 12.2139 1.57599 12.0591 1.73083L9.70245 4.08833M8.81745 9.09666C8.70134 8.9806 8.56351 8.88855 8.41182 8.82577C8.26014 8.76298 8.09757 8.73068 7.9334 8.73072C7.76924 8.73076 7.60669 8.76313 7.45503 8.82599C7.30338 8.88885 7.16559 8.98097 7.04953 9.09708C6.93348 9.21319 6.84143 9.35102 6.77864 9.5027C6.71585 9.65439 6.68356 9.81696 6.68359 9.98112C6.68363 10.1453 6.71601 10.3078 6.77887 10.4595C6.84172 10.6111 6.93384 10.7489 7.04995 10.865C7.28444 11.0994 7.60245 11.231 7.93399 11.2309C8.26554 11.2309 8.58348 11.0991 8.81787 10.8646C9.05225 10.6301 9.18388 10.3121 9.18381 9.98053C9.18373 9.64898 9.05195 9.33105 8.81745 9.09666Z" stroke="black" stroke-width="2" stroke-linecap="round" stroke-linejoin="round"/>
</svg>
