<svg width="19" height="20" viewBox="0 0 19 20" fill="none" xmlns="http://www.w3.org/2000/svg">
<path d="M3.02399 1.56445H3.98972C5.10388 1.56445 6.01371 2.47621 6.01371 3.58844V6.48178C6.01371 7.59594 5.10195 8.50577 3.98972 8.50577H3.02399C1.91176 8.50577 1 7.59401 1 6.48178V3.58844C1 2.47428 1.90983 1.56445 3.02399 1.56445Z" stroke="#FBFBFB" stroke-width="2" stroke-miterlimit="22.9256" stroke-linecap="round" stroke-linejoin="round"/>
<path d="M14.1802 11.4961H15.146C16.2601 11.4961 17.17 12.4079 17.17 13.5201V16.4134C17.17 17.5276 16.2582 18.4374 15.146 18.4374H14.1802C13.068 18.4374 12.1562 17.5256 12.1562 16.4134V13.5201C12.1562 12.4059 13.0661 11.4961 14.1802 11.4961Z" stroke="#FBFBFB" stroke-width="2" stroke-miterlimit="22.9256" stroke-linecap="round" stroke-linejoin="round"/>
<path d="M13.7134 1L4.45508 19" stroke="#FBFBFB" stroke-width="2" stroke-miterlimit="22.9256" stroke-linecap="round" stroke-linejoin="round"/>
</svg>
