<svg width="40" height="40" viewBox="0 0 40 40" fill="none" xmlns="http://www.w3.org/2000/svg">
<path d="M8 2H2V8M32 2H38V8M8 38H2V32M32 38H38V32M20 24C21.0609 24 22.0783 23.5786 22.8284 22.8284C23.5786 22.0783 24 21.0609 24 20C24 18.9391 23.5786 17.9217 22.8284 17.1716C22.0783 16.4214 21.0609 16 20 16C18.9391 16 17.9217 16.4214 17.1716 17.1716C16.4214 17.9217 16 18.9391 16 20C16 21.0609 16.4214 22.0783 17.1716 22.8284C17.9217 23.5786 18.9391 24 20 24ZM38 20C34.222 25.982 27.436 32 20 32C12.564 32 5.778 25.982 2 20C6.598 14.316 11.984 8 20 8C28.016 8 33.402 14.316 38 20Z" stroke="#3D81DA" stroke-width="4" stroke-linecap="round" stroke-linejoin="round"/>
</svg>
