<svg width="25" height="25" viewBox="0 0 25 25" fill="none" xmlns="http://www.w3.org/2000/svg">
<g clip-path="url(#clip0_1816_9825)">
<path d="M12.5 0C9.18555 0 6.00391 1.31777 3.66211 3.66113C1.3179 6.00542 0.000649355 9.18473 0 12.5C0 15.8139 1.31836 18.9955 3.66211 21.3389C6.00391 23.6822 9.18555 25 12.5 25C15.8145 25 18.9961 23.6822 21.3379 21.3389C23.6816 18.9955 25 15.8139 25 12.5C25 9.18613 23.6816 6.00449 21.3379 3.66113C18.9961 1.31777 15.8145 0 12.5 0Z" fill="url(#paint0_linear_1816_9825)"/>
<path d="M5.65959 12.3685C9.30413 10.781 11.7338 9.73435 12.9487 9.22869C16.4213 7.78474 17.142 7.53396 17.6127 7.52546C17.7162 7.5238 17.9467 7.54939 18.0971 7.67097C18.2221 7.77351 18.2572 7.91218 18.2748 8.00955C18.2905 8.10681 18.3119 8.32849 18.2944 8.50154C18.1069 10.4781 17.2924 15.2746 16.8783 17.4885C16.7045 18.4252 16.3588 18.7392 16.0248 18.7699C15.2983 18.8367 14.7475 18.2902 14.0444 17.8295C12.9448 17.1082 12.3237 16.6594 11.2553 15.9556C10.0209 15.1424 10.8217 14.6953 11.5248 13.9648C11.7084 13.7736 14.9076 10.8644 14.9682 10.6006C14.976 10.5676 14.9838 10.4445 14.9096 10.3797C14.8373 10.3146 14.7299 10.3369 14.6518 10.3545C14.5405 10.3795 12.7846 11.5412 9.37834 13.8394C8.8803 14.182 8.42913 14.349 8.02288 14.3402C7.57756 14.3306 6.71819 14.0879 6.07952 13.8804C5.29827 13.626 4.67522 13.4914 4.72991 13.0592C4.75725 12.8342 5.0678 12.6039 5.65959 12.3685Z" fill="white"/>
</g>
<defs>
<linearGradient id="paint0_linear_1816_9825" x1="12.5" y1="0" x2="12.5" y2="25" gradientUnits="userSpaceOnUse">
<stop stop-color="#2AABEE"/>
<stop offset="1" stop-color="#229ED9"/>
</linearGradient>
<clipPath id="clip0_1816_9825">
<rect width="25" height="25" fill="white"/>
</clipPath>
</defs>
</svg>
