<svg width="25" height="25" viewBox="0 0 25 25" fill="none" xmlns="http://www.w3.org/2000/svg">
<g clip-path="url(#clip0_1816_9828)">
<path d="M9.88437 0.00413208L10.6438 0.00100708H14.3562L15.1167 0.00413208L16.0687 0.0145487L16.5198 0.0218404L16.9552 0.0332987L17.375 0.0478821L17.7792 0.0645487L18.1687 0.0864237L18.5437 0.112465L18.9031 0.143715L19.25 0.17809C21.0625 0.382257 22.3052 0.819757 23.2427 1.75726C24.1802 2.69476 24.6177 3.93642 24.8219 5.74997L24.8573 6.09684L24.8875 6.45726L24.9135 6.83226L24.9344 7.2208L24.9604 7.8333L24.9729 8.26038L24.9865 8.93122L24.9958 9.88434L25 10.9052L24.999 14.3562L24.9958 15.1166L24.9854 16.0687L24.9781 16.5198L24.9667 16.9552L24.9521 17.375L24.9354 17.7791L24.9135 18.1687L24.8875 18.5437L24.8562 18.9031L24.8219 19.25C24.6177 21.0625 24.1802 22.3052 23.2427 23.2427C22.3052 24.1802 21.0635 24.6177 19.25 24.8218L18.9031 24.8573L18.5427 24.8875L18.1677 24.9135L17.7792 24.9343L17.1667 24.9604L16.7396 24.9729L16.0687 24.9864L15.1156 24.9958L14.0948 25L10.6438 24.9989L9.88333 24.9958L8.93125 24.9854L8.48021 24.9781L8.04479 24.9666L7.625 24.952L7.22083 24.9354L6.83125 24.9135L6.45625 24.8875L6.09687 24.8562L5.75 24.8218C3.9375 24.6177 2.69479 24.1802 1.75729 23.2427C0.819792 22.3052 0.382292 21.0635 0.178125 19.25L0.142708 18.9031L0.1125 18.5427L0.0864583 18.1677L0.065625 17.7791L0.0395833 17.1666L0.0270833 16.7395L0.0135417 16.0687L0.00416667 15.1156L0 14.0948L0.00104167 10.6437L0.00416667 9.8833L0.0145833 8.93122L0.021875 8.48017L0.0333333 8.04476L0.0479167 7.62497L0.0645833 7.2208L0.0864583 6.83122L0.1125 6.45622L0.14375 6.09684L0.178125 5.74997C0.382292 3.93747 0.819792 2.69476 1.75729 1.75726C2.69479 0.819757 3.93646 0.382257 5.75 0.17809L6.09687 0.142674L6.45729 0.112465L6.83229 0.0864237L7.22083 0.0655904L7.83333 0.0395487L8.26042 0.0270487L8.93125 0.0135071L9.88437 0.00413208ZM7.07292 7.60413H4.21875C4.35417 14.1041 7.60417 18.0104 13.3021 18.0104H13.625V14.2916C15.7187 14.5 17.3021 16.0312 17.9375 18.0104H20.8958C20.0833 15.052 17.9479 13.4166 16.6146 12.7916C17.9479 12.0208 19.8229 10.1458 20.2708 7.60413H17.5833C17 9.66663 15.2708 11.5416 13.625 11.7187V7.60413H10.9375V14.8125C9.27083 14.3958 7.16667 12.375 7.07292 7.60413Z" fill="#719CEF"/>
</g>
<defs>
<clipPath id="clip0_1816_9828">
<rect width="25" height="25" fill="white"/>
</clipPath>
</defs>
</svg>
