<svg width="10" height="15" viewBox="0 0 10 15" fill="none" xmlns="http://www.w3.org/2000/svg">
<path d="M2.07769 4.808L4.21436 3.256C4.45421 3.08047 4.74596 2.99034 5.04302 3C5.40536 3.00904 5.75588 3.13074 6.04586 3.34819C6.33583 3.56564 6.55085 3.86803 6.66102 4.21333C6.78502 4.602 6.89836 4.86467 7.00102 5.00133C7.31123 5.4152 7.71363 5.75107 8.17629 5.98229C8.63895 6.2135 9.14914 6.3337 9.66636 6.33333V7.66667C8.97789 7.66742 8.29781 7.51552 7.67509 7.22191C7.05237 6.9283 6.50248 6.50028 6.06502 5.96867L5.60036 8.60533L6.97436 9.75867L8.45636 13.8307L7.20302 14.2867L5.84302 10.5507L3.58302 8.654C3.39756 8.50424 3.25563 8.30748 3.17203 8.08424C3.08843 7.86099 3.06621 7.61942 3.10769 7.38467L3.44702 5.46133L2.99569 5.78933L1.57769 7.74133L0.499023 6.95733L2.06636 4.8L2.07769 4.808ZM5.99969 2.66667C5.64607 2.66667 5.30693 2.52619 5.05688 2.27614C4.80683 2.02609 4.66636 1.68696 4.66636 1.33333C4.66636 0.979711 4.80683 0.640573 5.05688 0.390524C5.30693 0.140476 5.64607 0 5.99969 0C6.35331 0 6.69245 0.140476 6.9425 0.390524C7.19255 0.640573 7.33302 0.979711 7.33302 1.33333C7.33302 1.68696 7.19255 2.02609 6.9425 2.27614C6.69245 2.52619 6.35331 2.66667 5.99969 2.66667ZM4.01836 11.454L1.87569 14.0073L0.854357 13.1507L2.83836 10.7867L3.33569 9.33333L4.52969 10.3333L4.01836 11.454Z" fill="black"/>
</svg>
