<svg width="25" height="25" viewBox="0 0 25 25" fill="none" xmlns="http://www.w3.org/2000/svg">
<g clip-path="url(#clip0_1816_9821)">
<path d="M0.529494 12.3506C0.528912 14.4511 1.07775 16.5021 2.12135 18.3098L0.429688 24.4864L6.75062 22.829C8.4989 23.7808 10.4577 24.2795 12.4483 24.2796H12.4535C19.0247 24.2796 24.3739 18.9324 24.3767 12.36C24.3779 9.17525 23.1388 6.18048 20.8874 3.92738C18.6365 1.67447 15.6428 0.433094 12.453 0.431641C5.88105 0.431641 0.532304 5.77854 0.529591 12.3506" fill="url(#paint0_linear_1816_9821)"/>
<path d="M9.36864 7.18495C9.13744 6.67109 8.89413 6.66072 8.67426 6.65171C8.49422 6.64396 8.28841 6.64454 8.08279 6.64454C7.87697 6.64454 7.54258 6.72196 7.25992 7.03059C6.97697 7.3395 6.17969 8.08601 6.17969 9.60433C6.17969 11.1227 7.2856 12.5901 7.43977 12.7962C7.59413 13.0019 9.57475 16.2174 12.7116 17.4544C15.3185 18.4824 15.8491 18.278 16.4149 18.2264C16.9808 18.1751 18.2408 17.4801 18.4979 16.7595C18.7552 16.0389 18.7552 15.4213 18.678 15.2922C18.6009 15.1636 18.3951 15.0864 18.0865 14.9321C17.7777 14.7778 16.2605 14.0312 15.9777 13.9282C15.6947 13.8253 15.489 13.7739 15.2832 14.0829C15.0774 14.3914 14.4864 15.0864 14.3062 15.2922C14.1263 15.4985 13.9462 15.5242 13.6376 15.3698C13.3288 15.215 12.3349 14.8895 11.1558 13.8382C10.2383 13.0202 9.61893 12.01 9.43889 11.701C9.25885 11.3925 9.41961 11.2253 9.57436 11.0715C9.71302 10.9332 9.88308 10.7111 10.0375 10.531C10.1914 10.3507 10.2428 10.2222 10.3457 10.0163C10.4487 9.81034 10.3971 9.6301 10.3201 9.47574C10.2428 9.32138 9.64306 7.79522 9.36864 7.18505" fill="white"/>
</g>
<defs>
<linearGradient id="paint0_linear_1816_9821" x1="12.4032" y1="24.4864" x2="12.4032" y2="0.431641" gradientUnits="userSpaceOnUse">
<stop stop-color="#1FAF38"/>
<stop offset="1" stop-color="#60D669"/>
</linearGradient>
<clipPath id="clip0_1816_9821">
<rect width="24.81" height="25" fill="white"/>
</clipPath>
</defs>
</svg>
